<?xml version="1.0" encoding="UTF-8"?>
<!DOCTYPE svg PUBLIC "-//W3C//DTD SVG 1.1//EN" "http://www.w3.org/Graphics/SVG/1.1/DTD/svg11.dtd">
<!-- Creator: CorelDRAW 2021 (64-Bit) -->
<svg xmlns="http://www.w3.org/2000/svg" xml:space="preserve" width="350px" height="127px" version="1.1" style="shape-rendering:geometricPrecision; text-rendering:geometricPrecision; image-rendering:optimizeQuality; fill-rule:evenodd; clip-rule:evenodd"
viewBox="0 0 52.92 19.16"
 xmlns:xlink="http://www.w3.org/1999/xlink"
 xmlns:xodm="http://www.corel.com/coreldraw/odm/2003">
 <defs>
  <style type="text/css">
   <![CDATA[
    .fil0 {fill:#282829}
    .fil1 {fill:#282829;fill-rule:nonzero}
   ]]>
  </style>
 </defs>
 <g id="Layer_x0020_1">
  <metadata id="CorelCorpID_0Corel-Layer"/>
  <g id="_1931011586144">
   <path class="fil0" d="M10.87 2.55c6.98,1.3 14.19,0.92 20.78,-1.13 8.59,-2.05 15.68,-1.88 21.27,0.49 -8.17,-0.98 -14.87,-0.56 -20.09,1.28 7.32,0.53 13.67,2.53 19.06,6.02 -7.21,-2.44 -13.65,-4.11 -19.05,-4.73 -6.88,-0.8 -15.67,2.12 -21.97,-1.93z"/>
   <path class="fil0" d="M5.71 3.08c7.59,2.11 16.97,1.6 27.23,-1.28 -10.91,6.42 -22.34,7.73 -32.94,4.41 4.02,0.26 7.53,0.59 9.83,0.45 -3.36,-0.62 -5.8,-1.54 -7.22,-2.11 3.21,0.36 6.2,0.85 9.21,0.86 -2.46,-0.55 -4.59,-1.47 -6.11,-2.33z"/>
   <path class="fil1" d="M0.68 14.98l0 -0.07c0.11,0 0.2,-0.02 0.27,-0.04 0.06,-0.03 0.12,-0.07 0.17,-0.12 0.06,-0.06 0.11,-0.14 0.13,-0.23 0.02,-0.1 0.03,-0.24 0.03,-0.44l0 -2.09c0,-0.2 -0.01,-0.34 -0.03,-0.44 -0.02,-0.09 -0.07,-0.17 -0.13,-0.23 -0.05,-0.05 -0.11,-0.09 -0.17,-0.12 -0.07,-0.02 -0.16,-0.04 -0.27,-0.04l0 -0.07 1.87 0c0.19,0 0.31,0.01 0.37,0.01 0.21,0.02 0.39,0.07 0.53,0.15 0.13,0.08 0.22,0.18 0.29,0.3 0.07,0.13 0.1,0.26 0.1,0.42 0,0.25 -0.08,0.45 -0.23,0.61 -0.05,0.06 -0.12,0.11 -0.19,0.15 -0.07,0.04 -0.17,0.08 -0.3,0.13 0.18,0.03 0.32,0.06 0.42,0.1 0.1,0.03 0.19,0.08 0.28,0.15 0.12,0.1 0.21,0.22 0.28,0.37 0.07,0.14 0.1,0.3 0.1,0.47 0,0.17 -0.03,0.33 -0.1,0.48 -0.07,0.14 -0.17,0.25 -0.29,0.34 -0.11,0.08 -0.25,0.13 -0.4,0.16 -0.15,0.03 -0.37,0.05 -0.65,0.05l-2.08 0zm1.22 -3.8l0 1.7 0.23 0c0.1,0 0.22,-0.01 0.33,-0.03 0.1,-0.01 0.18,-0.03 0.25,-0.05 0.06,-0.02 0.11,-0.05 0.16,-0.09 0.1,-0.07 0.18,-0.16 0.23,-0.27 0.05,-0.12 0.08,-0.24 0.08,-0.38 0,-0.15 -0.03,-0.28 -0.09,-0.41 -0.05,-0.13 -0.12,-0.23 -0.21,-0.31 -0.08,-0.06 -0.17,-0.1 -0.27,-0.12 -0.1,-0.03 -0.25,-0.04 -0.45,-0.04l-0.26 0zm0 1.78l0 1.17c0,0.15 0,0.26 0.03,0.35 0.01,0.09 0.05,0.16 0.09,0.22 0.1,0.13 0.27,0.19 0.5,0.19 0.31,0 0.55,-0.08 0.73,-0.25 0.17,-0.17 0.26,-0.39 0.26,-0.68 0,-0.17 -0.02,-0.32 -0.08,-0.46 -0.05,-0.14 -0.13,-0.25 -0.22,-0.33 -0.17,-0.14 -0.44,-0.21 -0.8,-0.21l-0.51 0zm6.66 2.02l-1.87 0 0 -0.07c0.16,-0.01 0.28,-0.04 0.35,-0.08 0.12,-0.08 0.18,-0.18 0.18,-0.31 0,-0.08 -0.03,-0.18 -0.08,-0.31l-0.05 -0.12 -0.28 -0.67 -1.25 0 -0.15 0.39 -0.07 0.18c-0.08,0.2 -0.13,0.37 -0.13,0.49 0,0.07 0.02,0.13 0.05,0.19 0.03,0.06 0.07,0.11 0.13,0.15 0.07,0.05 0.17,0.08 0.28,0.09l0 0.07 -1.27 0 0 -0.07c0.1,0 0.19,-0.03 0.26,-0.07 0.08,-0.04 0.15,-0.11 0.22,-0.21 0.07,-0.08 0.12,-0.18 0.18,-0.3 0.06,-0.12 0.14,-0.31 0.23,-0.55l1.04 -2.69 0.16 0 1.24 2.99c0.1,0.23 0.17,0.39 0.23,0.49 0.05,0.1 0.11,0.17 0.17,0.22 0.05,0.03 0.1,0.06 0.16,0.08 0.06,0.01 0.15,0.03 0.27,0.04l0 0.07zm-1.79 -1.68l-0.6 -1.47 -0.56 1.47 1.16 0zm3.08 -0.4l2.02 0 0 -0.91c0,-0.2 -0.01,-0.34 -0.03,-0.44 -0.02,-0.09 -0.07,-0.17 -0.12,-0.23 -0.06,-0.05 -0.12,-0.09 -0.19,-0.12 -0.06,-0.02 -0.15,-0.04 -0.26,-0.04l0 -0.07 1.81 0 0 0.07c-0.1,0 -0.19,0.02 -0.26,0.04 -0.07,0.03 -0.13,0.07 -0.18,0.12 -0.06,0.06 -0.1,0.14 -0.12,0.23 -0.02,0.1 -0.03,0.24 -0.03,0.44l0 2.09c0,0.2 0.01,0.34 0.03,0.43 0.02,0.1 0.06,0.18 0.12,0.24 0.05,0.05 0.11,0.09 0.18,0.12 0.07,0.02 0.16,0.04 0.26,0.04l0 0.07 -1.81 0 0 -0.07c0.11,0 0.2,-0.02 0.26,-0.04 0.07,-0.03 0.13,-0.07 0.19,-0.12 0.05,-0.06 0.1,-0.14 0.12,-0.23 0.02,-0.09 0.03,-0.24 0.03,-0.43l0 -1.05 -2.02 0 0 1.05c0,0.19 0.01,0.33 0.03,0.43 0.02,0.09 0.06,0.17 0.12,0.23 0.05,0.05 0.11,0.09 0.18,0.12 0.07,0.02 0.16,0.04 0.27,0.04l0 0.07 -1.81 0 0 -0.07c0.1,0 0.19,-0.02 0.26,-0.04 0.07,-0.03 0.13,-0.07 0.18,-0.12 0.06,-0.06 0.1,-0.14 0.12,-0.23 0.02,-0.1 0.03,-0.24 0.03,-0.44l0 -2.09c0,-0.2 -0.01,-0.34 -0.03,-0.44 -0.02,-0.09 -0.06,-0.17 -0.12,-0.23 -0.05,-0.05 -0.11,-0.09 -0.18,-0.12 -0.07,-0.02 -0.16,-0.04 -0.26,-0.04l0 -0.07 1.81 0 0 0.07c-0.11,0 -0.2,0.02 -0.27,0.04 -0.06,0.03 -0.12,0.07 -0.18,0.12 -0.06,0.06 -0.1,0.14 -0.12,0.24 -0.02,0.09 -0.03,0.23 -0.03,0.43l0 0.91zm4.74 0.18l0 1.01c0,0.19 0.01,0.33 0.03,0.43 0.02,0.09 0.06,0.17 0.12,0.23 0.05,0.05 0.11,0.09 0.18,0.12 0.07,0.02 0.16,0.04 0.27,0.04l0 0.07 -1.82 0 0 -0.07c0.11,0 0.2,-0.02 0.27,-0.04 0.06,-0.03 0.12,-0.07 0.18,-0.12 0.06,-0.06 0.1,-0.14 0.12,-0.23 0.02,-0.1 0.03,-0.24 0.03,-0.44l0 -2.09c0,-0.2 -0.01,-0.34 -0.03,-0.44 -0.02,-0.09 -0.06,-0.17 -0.12,-0.23 -0.06,-0.05 -0.12,-0.09 -0.18,-0.12 -0.07,-0.02 -0.16,-0.04 -0.27,-0.04l0 -0.07 1.37 0c0.23,0 0.38,0 0.46,0.01 0.29,0.01 0.52,0.05 0.69,0.12 0.18,0.07 0.33,0.19 0.43,0.34 0.11,0.15 0.16,0.32 0.16,0.52 0,0.3 -0.11,0.53 -0.34,0.71 -0.07,0.06 -0.14,0.1 -0.22,0.13 -0.09,0.04 -0.2,0.07 -0.33,0.1 0.11,0.05 0.19,0.1 0.24,0.15 0.05,0.04 0.09,0.09 0.12,0.15 0.04,0.06 0.09,0.16 0.16,0.32 0.17,0.34 0.3,0.6 0.38,0.76 0.09,0.16 0.16,0.27 0.22,0.35 0.05,0.05 0.09,0.1 0.14,0.12 0.04,0.02 0.1,0.04 0.18,0.04l0 0.07 -0.94 0c-0.04,-0.11 -0.07,-0.17 -0.09,-0.2l-0.2 -0.45c-0.12,-0.27 -0.24,-0.51 -0.36,-0.72 -0.12,-0.21 -0.23,-0.35 -0.33,-0.43 -0.05,-0.03 -0.11,-0.06 -0.17,-0.08 -0.06,-0.01 -0.13,-0.02 -0.21,-0.02l-0.14 0zm0 -0.06l0.1 0c0.24,0 0.41,-0.02 0.51,-0.04 0.1,-0.03 0.2,-0.09 0.29,-0.17 0.2,-0.19 0.3,-0.43 0.3,-0.71 0,-0.15 -0.03,-0.29 -0.09,-0.42 -0.05,-0.13 -0.14,-0.24 -0.24,-0.32 -0.08,-0.07 -0.17,-0.11 -0.28,-0.14 -0.12,-0.03 -0.27,-0.04 -0.48,-0.04l-0.11 0 0 1.84zm4.36 -1.93l0 0.07c-0.11,0 -0.19,0.02 -0.26,0.04 -0.07,0.03 -0.13,0.07 -0.18,0.12 -0.07,0.08 -0.12,0.18 -0.14,0.32 -0.01,0.1 -0.01,0.22 -0.01,0.35l0 2.09c0,0.16 0,0.29 0.02,0.38 0.01,0.09 0.04,0.16 0.07,0.22 0.05,0.07 0.12,0.13 0.19,0.17 0.08,0.03 0.18,0.06 0.31,0.06l0 0.07 -1.81 0 0 -0.07c0.11,0 0.2,-0.02 0.27,-0.04 0.06,-0.03 0.12,-0.07 0.18,-0.12 0.06,-0.06 0.1,-0.14 0.12,-0.23 0.02,-0.1 0.03,-0.24 0.03,-0.44l0 -2.09c0,-0.2 -0.01,-0.34 -0.03,-0.44 -0.02,-0.09 -0.06,-0.17 -0.12,-0.23 -0.06,-0.05 -0.12,-0.09 -0.18,-0.12 -0.07,-0.02 -0.16,-0.04 -0.27,-0.04l0 -0.07 1.81 0zm4.24 3.89l-1.87 0 0 -0.07c0.17,-0.01 0.29,-0.04 0.36,-0.08 0.11,-0.08 0.17,-0.18 0.17,-0.31 0,-0.08 -0.02,-0.18 -0.08,-0.31l-0.04 -0.12 -0.28 -0.67 -1.25 0 -0.15 0.39 -0.07 0.18c-0.09,0.2 -0.13,0.37 -0.13,0.49 0,0.07 0.02,0.13 0.05,0.19 0.03,0.06 0.07,0.11 0.12,0.15 0.08,0.05 0.17,0.08 0.29,0.09l0 0.07 -1.27 0 0 -0.07c0.1,0 0.18,-0.03 0.26,-0.07 0.08,-0.04 0.15,-0.11 0.22,-0.21 0.06,-0.08 0.12,-0.18 0.18,-0.3 0.06,-0.12 0.13,-0.31 0.23,-0.55l1.04 -2.69 0.16 0 1.24 2.99c0.1,0.23 0.17,0.39 0.22,0.49 0.06,0.1 0.12,0.17 0.18,0.22 0.05,0.03 0.1,0.06 0.16,0.08 0.06,0.01 0.15,0.03 0.26,0.04l0 0.07zm-1.78 -1.68l-0.6 -1.47 -0.56 1.47 1.16 0zm6.37 -2.21l0.05 0.94 -0.06 0.01c-0.03,-0.16 -0.07,-0.29 -0.13,-0.4 -0.05,-0.1 -0.14,-0.2 -0.24,-0.28 -0.09,-0.06 -0.2,-0.11 -0.32,-0.14 -0.12,-0.03 -0.28,-0.04 -0.48,-0.04l-0.66 0 0 1.71 0.17 0c0.18,0 0.31,-0.01 0.4,-0.03 0.08,-0.02 0.15,-0.06 0.21,-0.12 0.05,-0.06 0.09,-0.12 0.12,-0.2 0.02,-0.07 0.05,-0.18 0.06,-0.33l0.07 0 -0.01 1.53 -0.07 0c-0.02,-0.15 -0.04,-0.27 -0.07,-0.36 -0.04,-0.09 -0.08,-0.16 -0.14,-0.22 -0.06,-0.06 -0.13,-0.11 -0.23,-0.14 -0.09,-0.03 -0.2,-0.04 -0.34,-0.04l-0.17 0 0 0.65c0,0.26 0.01,0.45 0.02,0.57 0.02,0.12 0.04,0.22 0.08,0.3 0.07,0.13 0.16,0.23 0.3,0.3 0.13,0.06 0.31,0.09 0.52,0.09 0.23,0 0.42,-0.03 0.57,-0.09 0.16,-0.05 0.28,-0.14 0.38,-0.27 0.07,-0.08 0.12,-0.17 0.16,-0.27 0.05,-0.11 0.09,-0.25 0.12,-0.42l0.07 0.01 -0.04 1.13 -3.39 0 0 -0.07c0.1,0 0.19,-0.02 0.26,-0.04 0.07,-0.03 0.13,-0.07 0.18,-0.12 0.06,-0.06 0.1,-0.14 0.12,-0.23 0.03,-0.1 0.04,-0.24 0.04,-0.44l0 -2.09c0,-0.2 -0.01,-0.34 -0.04,-0.44 -0.02,-0.09 -0.06,-0.17 -0.12,-0.23 -0.05,-0.05 -0.11,-0.09 -0.18,-0.12 -0.06,-0.02 -0.15,-0.04 -0.26,-0.04l0 -0.07 3.05 0zm1.28 0.52l0 2.47c0,0.2 0.01,0.34 0.04,0.44 0.02,0.09 0.06,0.17 0.12,0.23 0.05,0.05 0.11,0.09 0.18,0.12 0.07,0.02 0.15,0.04 0.26,0.04l0 0.07 -1.31 0 0 -0.07c0.11,0 0.2,-0.02 0.26,-0.04 0.07,-0.03 0.13,-0.07 0.18,-0.12 0.06,-0.06 0.1,-0.14 0.12,-0.23 0.03,-0.1 0.04,-0.24 0.04,-0.44l0 -2.1c0,-0.19 -0.01,-0.33 -0.04,-0.43 -0.02,-0.09 -0.06,-0.17 -0.12,-0.23 -0.05,-0.05 -0.11,-0.09 -0.17,-0.12 -0.07,-0.02 -0.16,-0.04 -0.27,-0.04l0 -0.07 1.1 0 2.3 2.95 0 -2.05c0,-0.2 -0.01,-0.34 -0.03,-0.44 -0.02,-0.09 -0.06,-0.17 -0.12,-0.23 -0.05,-0.05 -0.11,-0.09 -0.18,-0.12 -0.07,-0.02 -0.16,-0.04 -0.26,-0.04l0 -0.07 1.31 0 0 0.07c-0.19,0 -0.34,0.05 -0.45,0.16 -0.05,0.06 -0.1,0.14 -0.12,0.23 -0.02,0.1 -0.03,0.24 -0.03,0.43l0 3 -0.13 0 -2.68 -3.37zm7.19 -0.52l0.04 1.26 -0.07 0c-0.02,-0.06 -0.04,-0.1 -0.05,-0.13 -0.06,-0.18 -0.12,-0.32 -0.16,-0.41 -0.07,-0.16 -0.18,-0.3 -0.32,-0.43 -0.11,-0.1 -0.22,-0.18 -0.33,-0.22 -0.12,-0.05 -0.24,-0.07 -0.39,-0.07 -0.21,0 -0.4,0.04 -0.55,0.14 -0.14,0.08 -0.27,0.2 -0.39,0.35 -0.12,0.15 -0.22,0.32 -0.3,0.52 -0.1,0.27 -0.16,0.59 -0.16,0.94 0,0.29 0.04,0.56 0.11,0.8 0.08,0.24 0.19,0.44 0.33,0.6 0.26,0.3 0.61,0.45 1.04,0.45 0.22,0 0.41,-0.04 0.58,-0.11 0.18,-0.08 0.31,-0.18 0.41,-0.32 0.1,-0.16 0.18,-0.37 0.23,-0.64l0.07 0.02c-0.04,0.3 -0.12,0.53 -0.25,0.71 -0.12,0.17 -0.28,0.3 -0.5,0.39 -0.21,0.09 -0.46,0.13 -0.74,0.13 -0.26,0 -0.51,-0.04 -0.75,-0.12 -0.38,-0.12 -0.68,-0.35 -0.89,-0.67 -0.22,-0.33 -0.32,-0.72 -0.32,-1.17 0,-0.35 0.06,-0.67 0.18,-0.96 0.13,-0.3 0.3,-0.53 0.53,-0.71 0.17,-0.14 0.37,-0.24 0.61,-0.32 0.24,-0.09 0.48,-0.12 0.73,-0.12 0.22,0 0.47,0.04 0.72,0.13l0.24 0.07c0.04,0.02 0.08,0.03 0.12,0.03 0.04,0 0.08,-0.02 0.11,-0.06 0.02,-0.02 0.03,-0.05 0.05,-0.09l0.07 0.01zm0.4 3.89l0 -0.07c0.19,0 0.34,-0.05 0.45,-0.16 0.05,-0.06 0.09,-0.14 0.12,-0.23 0.02,-0.1 0.03,-0.24 0.03,-0.43l0 -2.1c0,-0.2 -0.01,-0.35 -0.04,-0.45 -0.02,-0.09 -0.06,-0.17 -0.13,-0.23 -0.05,-0.05 -0.11,-0.09 -0.18,-0.11 -0.06,-0.02 -0.15,-0.04 -0.25,-0.04l0 -0.07 1.81 0 0 0.07c-0.1,0 -0.19,0.02 -0.25,0.04 -0.07,0.02 -0.13,0.06 -0.18,0.11 -0.06,0.06 -0.11,0.14 -0.13,0.24 -0.02,0.09 -0.03,0.24 -0.03,0.44l0 1.64c0,0.25 0,0.44 0.02,0.56 0.01,0.13 0.04,0.23 0.07,0.3 0.07,0.14 0.17,0.24 0.3,0.31 0.13,0.06 0.3,0.09 0.52,0.09 0.22,0 0.41,-0.03 0.57,-0.09 0.15,-0.06 0.28,-0.15 0.38,-0.28 0.06,-0.08 0.12,-0.18 0.16,-0.29 0.04,-0.11 0.08,-0.25 0.12,-0.42l0.07 0 -0.04 1.17 -3.39 0zm7.51 0l-1.87 0 0 -0.07c0.17,-0.01 0.29,-0.04 0.35,-0.08 0.12,-0.08 0.18,-0.18 0.18,-0.31 0,-0.08 -0.03,-0.18 -0.08,-0.31l-0.05 -0.12 -0.27 -0.67 -1.25 0 -0.15 0.39 -0.07 0.18c-0.09,0.2 -0.13,0.37 -0.13,0.49 0,0.07 0.01,0.13 0.04,0.19 0.04,0.06 0.08,0.11 0.13,0.15 0.08,0.05 0.17,0.08 0.29,0.09l0 0.07 -1.28 0 0 -0.07c0.1,0 0.19,-0.03 0.27,-0.07 0.07,-0.04 0.15,-0.11 0.22,-0.21 0.06,-0.08 0.12,-0.18 0.18,-0.3 0.05,-0.12 0.13,-0.31 0.22,-0.55l1.05 -2.69 0.16 0 1.24 2.99c0.09,0.23 0.17,0.39 0.22,0.49 0.05,0.1 0.11,0.17 0.18,0.22 0.04,0.03 0.1,0.06 0.16,0.08 0.05,0.01 0.14,0.03 0.26,0.04l0 0.07zm-1.79 -1.68l-0.59 -1.47 -0.57 1.47 1.16 0zm1.63 -2.21l1.87 0 0 0.07c-0.14,0.01 -0.24,0.03 -0.3,0.06 -0.06,0.03 -0.11,0.08 -0.14,0.14 -0.04,0.06 -0.06,0.12 -0.06,0.19 0,0.05 0.01,0.09 0.02,0.13 0.01,0.04 0.03,0.12 0.08,0.25l0.84 2.29 0.82 -2.01c0.11,-0.28 0.17,-0.49 0.17,-0.62 0,-0.07 -0.01,-0.14 -0.03,-0.2 -0.03,-0.06 -0.06,-0.11 -0.09,-0.14 -0.04,-0.04 -0.08,-0.06 -0.13,-0.07 -0.04,-0.02 -0.1,-0.02 -0.18,-0.02l0 -0.07 1.27 0 0 0.07c-0.11,0.01 -0.2,0.03 -0.27,0.07 -0.08,0.05 -0.15,0.11 -0.22,0.2 -0.05,0.06 -0.1,0.14 -0.15,0.25 -0.06,0.1 -0.13,0.26 -0.22,0.48l-1.16 2.82 -0.12 0 -1.13 -2.91c-0.15,-0.38 -0.27,-0.62 -0.36,-0.73 -0.06,-0.06 -0.13,-0.11 -0.21,-0.14 -0.08,-0.03 -0.18,-0.04 -0.3,-0.04l0 -0.07zm7.24 0l0.05 0.94 -0.07 0.01c-0.02,-0.16 -0.06,-0.29 -0.12,-0.4 -0.06,-0.1 -0.14,-0.2 -0.25,-0.28 -0.09,-0.06 -0.19,-0.11 -0.31,-0.14 -0.13,-0.03 -0.29,-0.04 -0.49,-0.04l-0.65 0 0 1.71 0.17 0c0.17,0 0.3,-0.01 0.39,-0.03 0.09,-0.02 0.16,-0.06 0.22,-0.12 0.05,-0.06 0.09,-0.12 0.12,-0.2 0.02,-0.07 0.04,-0.18 0.06,-0.33l0.06 0 -0.01 1.53 -0.06 0c-0.02,-0.15 -0.04,-0.27 -0.08,-0.36 -0.03,-0.09 -0.08,-0.16 -0.14,-0.22 -0.05,-0.06 -0.13,-0.11 -0.22,-0.14 -0.09,-0.03 -0.21,-0.04 -0.35,-0.04l-0.16 0 0 0.65c0,0.26 0.01,0.45 0.02,0.57 0.01,0.12 0.04,0.22 0.08,0.3 0.06,0.13 0.16,0.23 0.29,0.3 0.14,0.06 0.31,0.09 0.53,0.09 0.23,0 0.42,-0.03 0.57,-0.09 0.15,-0.05 0.28,-0.14 0.37,-0.27 0.07,-0.08 0.13,-0.17 0.17,-0.27 0.04,-0.11 0.08,-0.25 0.12,-0.42l0.06 0.01 -0.03 1.13 -3.4 0 0 -0.07c0.11,0 0.2,-0.02 0.27,-0.04 0.06,-0.03 0.12,-0.07 0.18,-0.12 0.06,-0.06 0.1,-0.14 0.12,-0.23 0.02,-0.1 0.03,-0.24 0.03,-0.44l0 -2.09c0,-0.2 -0.01,-0.34 -0.03,-0.44 -0.02,-0.09 -0.06,-0.17 -0.12,-0.23 -0.05,-0.05 -0.11,-0.09 -0.18,-0.12 -0.07,-0.02 -0.16,-0.04 -0.27,-0.04l0 -0.07 3.06 0z"/>
   <path class="fil1" d="M9.85 16.9l0 0.03c-0.06,0.01 -0.11,0.02 -0.15,0.03 -0.04,0.01 -0.07,0.04 -0.1,0.07 -0.04,0.04 -0.07,0.1 -0.08,0.18 -0.01,0.05 -0.01,0.12 -0.01,0.19l0 1.2c0,0.09 0.01,0.16 0.01,0.21 0.01,0.05 0.03,0.09 0.05,0.12 0.02,0.04 0.06,0.08 0.1,0.1 0.05,0.02 0.11,0.03 0.18,0.04l0 0.03 -1.03 0 0 -0.03c0.06,-0.01 0.11,-0.02 0.15,-0.03 0.04,-0.02 0.07,-0.04 0.1,-0.07 0.04,-0.03 0.06,-0.08 0.07,-0.13 0.01,-0.05 0.02,-0.13 0.02,-0.24l0 -1.2c0,-0.11 -0.01,-0.19 -0.02,-0.24 -0.01,-0.05 -0.03,-0.1 -0.07,-0.13 -0.03,-0.03 -0.06,-0.06 -0.1,-0.07 -0.04,-0.01 -0.09,-0.02 -0.15,-0.03l0 -0.03 1.03 0zm2.2 2.19l0.01 -0.67 0.03 0.01c0.05,0.17 0.1,0.3 0.17,0.4 0.11,0.18 0.26,0.27 0.44,0.27 0.12,0 0.23,-0.04 0.31,-0.12 0.08,-0.09 0.12,-0.19 0.12,-0.32 0,-0.05 -0.01,-0.11 -0.03,-0.17 -0.02,-0.05 -0.04,-0.1 -0.07,-0.14 -0.03,-0.04 -0.08,-0.08 -0.13,-0.12 -0.06,-0.04 -0.15,-0.09 -0.26,-0.15 -0.11,-0.05 -0.18,-0.1 -0.24,-0.13 -0.05,-0.04 -0.1,-0.07 -0.13,-0.11 -0.09,-0.1 -0.14,-0.22 -0.14,-0.37 0,-0.09 0.02,-0.17 0.05,-0.26 0.04,-0.08 0.09,-0.15 0.16,-0.21 0.11,-0.11 0.25,-0.16 0.4,-0.16 0.05,0 0.1,0.01 0.14,0.02 0.05,0.01 0.11,0.03 0.18,0.06 0.05,0.02 0.09,0.03 0.11,0.04 0.02,0 0.04,0.01 0.05,0.01 0.04,0 0.06,-0.03 0.08,-0.09l0.03 0 0.01 0.65 -0.03 0c-0.03,-0.11 -0.06,-0.19 -0.08,-0.24 -0.02,-0.06 -0.04,-0.11 -0.07,-0.15 -0.06,-0.09 -0.12,-0.15 -0.18,-0.19 -0.06,-0.04 -0.14,-0.06 -0.22,-0.06 -0.12,0 -0.21,0.04 -0.29,0.12 -0.02,0.04 -0.05,0.08 -0.06,0.12 -0.02,0.05 -0.03,0.09 -0.03,0.14 0,0.18 0.12,0.32 0.35,0.43l0.23 0.11c0.17,0.09 0.3,0.18 0.38,0.28 0.08,0.11 0.13,0.24 0.13,0.39 0,0.1 -0.02,0.19 -0.06,0.28 -0.06,0.13 -0.14,0.23 -0.25,0.29 -0.12,0.07 -0.25,0.11 -0.4,0.11 -0.14,0 -0.27,-0.03 -0.4,-0.09 -0.07,-0.03 -0.11,-0.04 -0.12,-0.05 -0.02,0 -0.03,-0.01 -0.05,-0.01 -0.05,0 -0.08,0.03 -0.1,0.08l-0.04 0zm3.6 0.01l0 -0.03c0.11,0 0.19,-0.04 0.25,-0.1 0.04,-0.03 0.06,-0.08 0.07,-0.13 0.01,-0.05 0.02,-0.13 0.02,-0.24l0 -1.2c0,-0.11 -0.01,-0.19 -0.02,-0.25 -0.01,-0.05 -0.04,-0.1 -0.08,-0.13 -0.03,-0.03 -0.06,-0.05 -0.1,-0.06 -0.03,-0.02 -0.08,-0.02 -0.14,-0.03l0 -0.03 1.03 0 0 0.03c-0.06,0.01 -0.11,0.01 -0.15,0.03 -0.03,0.01 -0.07,0.03 -0.1,0.06 -0.03,0.03 -0.06,0.08 -0.07,0.13 -0.01,0.06 -0.02,0.14 -0.02,0.25l0 0.94c0,0.14 0,0.25 0.01,0.32 0.01,0.07 0.02,0.12 0.04,0.17 0.04,0.08 0.1,0.13 0.17,0.17 0.08,0.03 0.17,0.05 0.3,0.05 0.13,0 0.23,-0.01 0.32,-0.05 0.09,-0.03 0.16,-0.08 0.22,-0.16 0.03,-0.04 0.07,-0.1 0.09,-0.16 0.02,-0.06 0.05,-0.14 0.07,-0.24l0.04 0 -0.03 0.66 -1.92 0zm6.23 0l-1.06 0 0 -0.03c0.09,-0.01 0.16,-0.03 0.2,-0.05 0.06,-0.04 0.1,-0.1 0.1,-0.18 0,-0.04 -0.02,-0.1 -0.05,-0.17l-0.03 -0.07 -0.15 -0.38 -0.71 0 -0.09 0.22 -0.04 0.1c-0.05,0.12 -0.07,0.21 -0.07,0.28 0,0.04 0.01,0.08 0.03,0.11 0.01,0.03 0.04,0.06 0.07,0.08 0.04,0.03 0.1,0.05 0.16,0.06l0 0.03 -0.72 0 0 -0.03c0.05,-0.01 0.1,-0.02 0.15,-0.05 0.04,-0.02 0.08,-0.06 0.12,-0.12 0.04,-0.04 0.07,-0.1 0.1,-0.17 0.04,-0.07 0.08,-0.17 0.13,-0.31l0.59 -1.52 0.1 0 0.7 1.7c0.05,0.12 0.1,0.22 0.13,0.27 0.03,0.06 0.06,0.1 0.1,0.12 0.03,0.02 0.05,0.04 0.09,0.05 0.03,0.01 0.08,0.02 0.15,0.03l0 0.03zm-1.02 -0.95l-0.33 -0.84 -0.33 0.84 0.66 0zm5.81 -1.22c-0.06,0.01 -0.11,0.01 -0.15,0.03 -0.03,0.01 -0.07,0.03 -0.1,0.07 -0.02,0.02 -0.04,0.04 -0.05,0.07 -0.01,0.03 -0.02,0.06 -0.03,0.11 0,0.05 -0.01,0.12 -0.01,0.19l0 1.2c0,0.11 0.01,0.19 0.02,0.24 0.02,0.06 0.04,0.1 0.07,0.13 0.06,0.06 0.14,0.09 0.25,0.1l0 0.03 -1.03 0 0 -0.03c0.06,-0.01 0.11,-0.02 0.15,-0.03 0.04,-0.02 0.08,-0.04 0.11,-0.07 0.03,-0.03 0.05,-0.08 0.06,-0.13 0.02,-0.05 0.02,-0.13 0.02,-0.24l0 -1.45 -0.83 1.95 -0.03 0 -0.83 -1.92 0 1.42c0,0.11 0.01,0.19 0.02,0.24 0.01,0.05 0.03,0.1 0.07,0.13 0.03,0.03 0.06,0.06 0.1,0.07 0.04,0.01 0.09,0.02 0.15,0.03l0 0.03 -0.74 0 0 -0.03c0.06,-0.01 0.11,-0.02 0.14,-0.03 0.04,-0.01 0.08,-0.04 0.11,-0.07 0.03,-0.03 0.05,-0.08 0.07,-0.13 0.01,-0.05 0.01,-0.13 0.01,-0.24l0 -1.2c0,-0.05 0,-0.09 0,-0.14 -0.01,-0.08 -0.02,-0.13 -0.04,-0.17 -0.02,-0.05 -0.06,-0.09 -0.11,-0.11 -0.05,-0.03 -0.11,-0.04 -0.18,-0.05l0 -0.03 0.7 0 0.69 1.72 0.73 -1.72 0.66 0 0 0.03zm4.38 2.17l-1.06 0 0 -0.03c0.09,-0.01 0.16,-0.03 0.2,-0.05 0.06,-0.04 0.1,-0.1 0.1,-0.18 0,-0.04 -0.02,-0.1 -0.05,-0.17l-0.03 -0.07 -0.15 -0.38 -0.71 0 -0.09 0.22 -0.04 0.1c-0.05,0.12 -0.07,0.21 -0.07,0.28 0,0.04 0.01,0.08 0.03,0.11 0.01,0.03 0.04,0.06 0.07,0.08 0.04,0.03 0.09,0.05 0.16,0.06l0 0.03 -0.72 0 0 -0.03c0.05,-0.01 0.1,-0.02 0.15,-0.05 0.04,-0.02 0.08,-0.06 0.12,-0.12 0.04,-0.04 0.07,-0.1 0.1,-0.17 0.04,-0.07 0.08,-0.17 0.13,-0.31l0.59 -1.52 0.1 0 0.7 1.7c0.05,0.12 0.1,0.22 0.13,0.27 0.03,0.06 0.06,0.1 0.1,0.12 0.03,0.02 0.05,0.04 0.09,0.05 0.03,0.01 0.08,0.02 0.15,0.03l0 0.03zm-1.02 -0.95l-0.33 -0.84 -0.33 0.84 0.66 0zm3.03 0.95l0 -0.03c0.06,-0.01 0.11,-0.02 0.15,-0.03 0.04,-0.02 0.07,-0.04 0.1,-0.07 0.03,-0.03 0.06,-0.08 0.07,-0.13 0.01,-0.05 0.02,-0.13 0.02,-0.24l0 -1.2c0,-0.11 -0.01,-0.19 -0.02,-0.24 -0.01,-0.05 -0.04,-0.1 -0.07,-0.13 -0.03,-0.03 -0.06,-0.06 -0.1,-0.07 -0.04,-0.01 -0.09,-0.02 -0.15,-0.03l0 -0.03 1.06 0c0.1,0 0.17,0 0.21,0 0.12,0.01 0.22,0.04 0.3,0.09 0.07,0.04 0.13,0.1 0.16,0.17 0.04,0.07 0.06,0.15 0.06,0.23 0,0.15 -0.04,0.26 -0.13,0.35 -0.03,0.04 -0.07,0.06 -0.11,0.09 -0.03,0.02 -0.09,0.04 -0.17,0.07 0.11,0.02 0.19,0.04 0.24,0.06 0.06,0.02 0.11,0.04 0.16,0.08 0.07,0.06 0.12,0.13 0.16,0.21 0.04,0.08 0.06,0.17 0.06,0.27 0,0.1 -0.02,0.19 -0.06,0.27 -0.04,0.08 -0.1,0.15 -0.17,0.19 -0.06,0.05 -0.13,0.08 -0.22,0.1 -0.09,0.01 -0.21,0.02 -0.37,0.02l-1.18 0zm0.69 -2.15l0 0.96 0.13 0c0.06,0 0.12,-0.01 0.19,-0.01 0.06,-0.01 0.1,-0.02 0.14,-0.03 0.03,-0.02 0.06,-0.03 0.09,-0.05 0.06,-0.04 0.1,-0.1 0.13,-0.16 0.03,-0.07 0.04,-0.14 0.04,-0.21 0,-0.09 -0.01,-0.16 -0.04,-0.24 -0.03,-0.07 -0.07,-0.13 -0.12,-0.17 -0.05,-0.04 -0.1,-0.06 -0.15,-0.07 -0.06,-0.02 -0.15,-0.02 -0.26,-0.02l-0.15 0zm0 1.01l0 0.66c0,0.08 0,0.15 0.01,0.2 0.02,0.05 0.03,0.09 0.06,0.12 0.06,0.08 0.15,0.11 0.28,0.11 0.18,0 0.31,-0.04 0.42,-0.14 0.1,-0.09 0.15,-0.22 0.15,-0.39 0,-0.09 -0.02,-0.18 -0.05,-0.26 -0.03,-0.08 -0.07,-0.14 -0.13,-0.18 -0.09,-0.08 -0.25,-0.12 -0.45,-0.12l-0.29 0zm5.74 1.14l-1.06 0 0 -0.03c0.1,-0.01 0.17,-0.03 0.2,-0.05 0.07,-0.04 0.1,-0.1 0.1,-0.18 0,-0.04 -0.01,-0.1 -0.04,-0.17l-0.03 -0.07 -0.15 -0.38 -0.72 0 -0.08 0.22 -0.04 0.1c-0.05,0.12 -0.07,0.21 -0.07,0.28 0,0.04 0,0.08 0.02,0.11 0.02,0.03 0.04,0.06 0.07,0.08 0.05,0.03 0.1,0.05 0.17,0.06l0 0.03 -0.73 0 0 -0.03c0.06,-0.01 0.11,-0.02 0.15,-0.05 0.05,-0.02 0.09,-0.06 0.13,-0.12 0.03,-0.04 0.07,-0.1 0.1,-0.17 0.03,-0.07 0.08,-0.17 0.13,-0.31l0.59 -1.52 0.09 0 0.71 1.7c0.05,0.12 0.09,0.22 0.12,0.27 0.03,0.06 0.07,0.1 0.11,0.12 0.02,0.02 0.05,0.04 0.08,0.05 0.04,0.01 0.09,0.02 0.15,0.03l0 0.03zm-1.01 -0.95l-0.34 -0.84 -0.32 0.84 0.66 0zm3.02 0.92c0.07,-0.01 0.12,-0.02 0.15,-0.03 0.04,-0.01 0.08,-0.04 0.11,-0.07 0.03,-0.03 0.05,-0.08 0.06,-0.13 0.02,-0.05 0.02,-0.13 0.02,-0.24l0 -1.2c0,-0.11 0,-0.2 -0.02,-0.26 -0.01,-0.05 -0.04,-0.1 -0.08,-0.13 -0.06,-0.05 -0.13,-0.07 -0.24,-0.08l0 -0.03 0.89 0c0.2,0 0.32,0 0.38,0 0.22,0.02 0.42,0.09 0.58,0.2 0.15,0.1 0.26,0.24 0.35,0.42 0.08,0.17 0.12,0.36 0.12,0.56 0,0.15 -0.02,0.29 -0.07,0.42 -0.05,0.13 -0.11,0.24 -0.2,0.33 -0.12,0.12 -0.27,0.2 -0.44,0.24 -0.14,0.02 -0.27,0.03 -0.41,0.03l-1.2 0 0 -0.03zm0.69 -2.12l0 1.6c0,0.11 0.01,0.19 0.02,0.25 0.01,0.05 0.04,0.1 0.07,0.14 0.07,0.08 0.18,0.12 0.33,0.12 0.14,0 0.25,-0.02 0.35,-0.06 0.09,-0.05 0.17,-0.12 0.25,-0.22 0.07,-0.09 0.13,-0.2 0.17,-0.32 0.03,-0.12 0.05,-0.25 0.05,-0.39 0,-0.16 -0.02,-0.3 -0.07,-0.44 -0.04,-0.14 -0.11,-0.26 -0.2,-0.36 -0.11,-0.14 -0.26,-0.24 -0.42,-0.29 -0.09,-0.02 -0.21,-0.03 -0.35,-0.03l-0.2 0z"/>
  </g>
 </g>
</svg>
