<?xml version="1.0" encoding="UTF-8"?>
<!DOCTYPE svg PUBLIC "-//W3C//DTD SVG 1.1//EN" "http://www.w3.org/Graphics/SVG/1.1/DTD/svg11.dtd">
<!-- Creator: CorelDRAW 2021 (64-Bit) -->
<svg xmlns="http://www.w3.org/2000/svg" xml:space="preserve" width="211px" height="212px" version="1.1" style="shape-rendering:geometricPrecision; text-rendering:geometricPrecision; image-rendering:optimizeQuality; fill-rule:evenodd; clip-rule:evenodd"
viewBox="0 0 32.69 32.84"
 xmlns:xlink="http://www.w3.org/1999/xlink"
 xmlns:xodm="http://www.corel.com/coreldraw/odm/2003">
 <defs>
  <style type="text/css">
   <![CDATA[
    .fil0 {fill:#282829}
    .fil1 {fill:#282829;fill-rule:nonzero}
   ]]>
  </style>
 </defs>
 <g id="Layer_x0020_1">
  <metadata id="CorelCorpID_0Corel-Layer"/>
  <g id="_1933165497968">
   <path class="fil0" d="M26.04 0.01c0,0.04 0,0.07 0,0.11 0.06,1.03 -0.08,2.04 -0.34,3.04 -0.32,1.22 -0.8,2.38 -1.36,3.51 -0.73,1.46 -1.6,2.85 -2.54,4.19 -0.74,1.05 -1.53,2.08 -2.38,3.05 -0.03,0.05 -0.08,0.09 -0.12,0.14 -0.01,-0.01 -0.02,-0.01 -0.03,-0.02 0.02,-0.05 0.03,-0.1 0.04,-0.16 0.51,-1.73 0.92,-3.49 1.14,-5.29 0.16,-1.27 0.22,-2.54 0.08,-3.82 -0.06,-0.48 -0.15,-0.96 -0.3,-1.43 -0.02,-0.07 -0.05,-0.13 -0.07,-0.19 -0.01,0.29 0.02,0.57 0.05,0.85 0.14,1.56 0.08,3.12 -0.16,4.67 -0.24,1.55 -0.68,3.05 -1.31,4.49 -1.24,2.79 -3.07,5.13 -5.36,7.14 -0.7,0.61 -1.45,1.17 -2.21,1.7 -0.45,0.31 -0.84,0.67 -1.18,1.08 -0.57,0.7 -0.84,1.47 -0.66,2.37 0.15,0.79 0.6,1.29 1.39,1.47 0.53,0.12 1.05,0.09 1.58,-0.04 -0.04,-0.02 -0.07,-0.03 -0.11,-0.05 -0.17,-0.07 -0.35,-0.14 -0.5,-0.24 -0.51,-0.32 -0.71,-0.78 -0.62,-1.37 0.06,-0.45 0.26,-0.84 0.51,-1.21 0.34,-0.5 0.75,-0.93 1.21,-1.32 1.22,-1.03 2.4,-2.09 3.56,-3.19 1.65,-1.58 3.2,-3.26 4.6,-5.07 1.15,-1.48 2.2,-3.04 3.07,-4.71 0.7,-1.35 1.28,-2.74 1.68,-4.2 0.28,-1.02 0.47,-2.06 0.53,-3.11 0.04,-0.73 0.01,-1.46 -0.11,-2.18 -0.01,-0.07 -0.03,-0.15 -0.05,-0.22l-0.03 0.01zm2.12 6.62c-0.37,0.7 -0.72,1.41 -1.1,2.1 -0.86,1.52 -1.87,2.94 -2.99,4.28 -0.61,0.73 -1.24,1.46 -1.94,2.12 -0.39,0.38 -0.78,0.75 -1.17,1.13 -0.04,0.04 -0.08,0.08 -0.13,0.13 0.12,-0.01 0.12,-0.01 0.18,-0.07 1.16,-0.92 2.3,-1.86 3.38,-2.88 0.81,-0.77 1.6,-1.57 2.26,-2.48 0.51,-0.69 0.99,-1.39 1.32,-2.18 0.26,-0.63 0.41,-1.28 0.35,-1.97 -0.01,-0.11 -0.01,-0.23 -0.08,-0.35 -0.03,0.07 -0.06,0.12 -0.08,0.17zm-0.49 5.97c-0.28,0.25 -0.56,0.5 -0.85,0.75 -0.59,0.51 -1.18,1.03 -1.83,1.48 -0.27,0.19 -0.53,0.39 -0.8,0.58 -0.14,0.1 -0.3,0.21 -0.45,0.3 -0.36,0.21 -0.73,0.42 -1.09,0.64 -0.1,0.06 -0.2,0.13 -0.29,0.2 0,0.01 0,0.02 0,0.03 0.03,0 0.07,-0.01 0.1,-0.02 0.4,-0.11 0.79,-0.25 1.17,-0.41 0.85,-0.36 1.68,-0.73 2.45,-1.24 0.44,-0.28 0.84,-0.6 1.18,-1 0.24,-0.27 0.42,-0.58 0.52,-0.93 0.04,-0.15 0.09,-0.3 0.05,-0.49 -0.07,0.04 -0.12,0.07 -0.16,0.11zm-0.1 3.1c-0.48,0.35 -1.01,0.64 -1.53,0.92 -0.38,0.2 -0.77,0.37 -1.17,0.53 -0.55,0.21 -1.12,0.4 -1.68,0.6 -0.06,0.02 -0.12,0.04 -0.19,0.07 0.05,0.02 0.08,0.02 0.11,0.02 0.33,-0.04 0.65,-0.09 0.98,-0.13 0.39,-0.06 0.78,-0.11 1.15,-0.24 0.3,-0.1 0.6,-0.18 0.89,-0.3 0.51,-0.21 0.94,-0.55 1.33,-0.94 0.15,-0.15 0.23,-0.33 0.3,-0.53 0.01,-0.02 0,-0.06 0,-0.12 -0.08,0.05 -0.14,0.08 -0.19,0.12zm-0.5 2.23c-0.25,0.11 -0.48,0.25 -0.73,0.34 -0.89,0.33 -1.81,0.55 -2.72,0.8 -0.06,0.02 -0.11,0.03 -0.16,0.05 0,0.01 0,0.02 0,0.04 0.09,0.01 0.18,0.02 0.28,0.02 0.66,0 1.32,-0.06 1.98,-0.2 0.42,-0.1 0.82,-0.24 1.16,-0.51 0.13,-0.1 0.24,-0.22 0.34,-0.35 0.07,-0.07 0.11,-0.17 0.12,-0.31 -0.11,0.05 -0.19,0.08 -0.27,0.12zm-9.85 1.08c-0.84,0.85 -1.73,1.65 -2.62,2.45 -0.08,0.07 -0.11,0.14 -0.11,0.25 0.01,0.71 0.01,1.42 0.01,2.13 -0.01,0.13 -0.01,0.25 -0.02,0.38 -0.04,0.38 -0.17,0.72 -0.52,0.93 -0.31,0.18 -0.65,0.23 -1.01,0.17 -0.55,-0.1 -0.9,-0.45 -0.99,-1 -0.02,-0.11 -0.03,-0.21 -0.05,-0.32 -0.01,0.01 -0.03,0 -0.03,0.01 -0.26,0.32 -0.48,0.67 -0.58,1.08 -0.07,0.3 -0.03,0.58 0.17,0.82 0.12,0.15 0.26,0.28 0.41,0.4 0.26,0.2 0.55,0.33 0.85,0.43 0.19,0.06 0.38,0.12 0.61,0.19 -0.93,0.23 -1.81,0.48 -2.75,0.26 0.04,0.02 0.07,0.06 0.12,0.08 0.24,0.1 0.48,0.23 0.73,0.31 0.39,0.13 0.8,0.19 1.21,0.22 0.73,0.05 1.46,0.01 2.17,-0.18 1.14,-0.31 1.91,-1.01 2.29,-2.14 0.18,-0.53 0.23,-1.07 0.23,-1.63 0.01,-1.59 0.01,-3.17 0,-4.76 0,-0.05 0,-0.1 -0.01,-0.17 -0.05,0.04 -0.08,0.06 -0.11,0.09zm-14.14 0.31c-1.19,0.38 -2.1,1.1 -2.65,2.23 -0.36,0.73 -0.48,1.51 -0.41,2.31 0.06,0.8 0.32,1.52 0.8,2.16 0.68,0.92 1.61,1.44 2.7,1.69 0.73,0.16 1.46,0.15 2.19,0.05 0.96,-0.15 1.81,-0.52 2.58,-1.1 0.08,-0.06 0.11,-0.12 0.11,-0.21 0,-1.2 0,-2.4 0,-3.6 0,-0.05 -0.01,-0.09 -0.01,-0.13 -0.31,-0.04 -3.92,-0.02 -4.04,0.02l0 1.74c0.07,0.01 0.14,0.01 0.2,0.01 0.14,0 0.29,0 0.43,0 0.2,0 0.41,0 0.61,0 0.06,0 0.12,0.01 0.19,0.02l0 0.54c0,0.32 -0.01,0.33 -0.31,0.41 -0.03,0 -0.05,0 -0.07,0.01 -0.29,0.06 -0.59,0.07 -0.89,0.03 -0.61,-0.08 -1.11,-0.37 -1.41,-0.92 -0.35,-0.63 -0.37,-1.28 -0.11,-1.94 0.2,-0.51 0.58,-0.84 1.09,-1.02 0.37,-0.13 0.74,-0.12 1.11,-0.05 0.45,0.08 0.85,0.29 1.21,0.56 0.05,0.04 0.1,0.07 0.16,0.11 0.52,-0.63 1.03,-1.24 1.56,-1.88 -0.06,-0.05 -0.1,-0.09 -0.14,-0.12 -0.27,-0.18 -0.52,-0.37 -0.8,-0.53 -0.66,-0.37 -1.38,-0.56 -2.15,-0.61 -0.14,0 -0.27,-0.01 -0.41,-0.01 -0.52,0 -1.04,0.06 -1.54,0.23zm22.63 -0.02c-0.04,0.22 -0.03,8.21 0.01,8.33 0.17,0.04 2.62,0.03 2.77,-0.01 0,-0.44 0,-0.89 0,-1.34 0,-0.45 0,-0.9 0,-1.37l3.89 0c0.04,-0.24 0.02,-2.04 -0.01,-2.18l-0.54 0 -0.57 0 -0.54 0 -0.57 0 -0.54 0c-0.19,0 -0.38,0 -0.57,0 -0.18,0 -0.36,0 -0.54,-0.01l0 -1.05 4.19 0 0 -2.38c-0.09,-0.01 -1.57,-0.02 -3.14,-0.02 -1.82,0 -3.78,0.01 -3.84,0.03zm-7.32 -0.02c-0.01,0 -0.01,0.01 -0.02,0.01 0,0 0,0.01 -0.01,0.02 -0.01,0.02 -0.01,0.05 -0.01,0.08 0,2.72 0,5.45 0,8.17 0,0.02 0.01,0.04 0.01,0.05 0,0.01 0.01,0.01 0.01,0.02 0,0 0.01,0.01 0.02,0.02l6.68 0 0 -2.39 -0.98 0 -0.97 0c-0.33,0 -0.66,0 -0.99,0 -0.11,0 -0.21,0 -0.31,0 -0.22,0 -0.44,0 -0.67,-0.01l0 -5.95c-0.04,-0.01 -0.05,-0.02 -0.07,-0.02 -0.83,-0.01 -1.67,-0.01 -2.51,-0.01 -0.06,0 -0.12,0.01 -0.18,0.01zm-9.31 0l0 4.84c0.01,0 0.02,0 0.03,0.01 0.02,-0.03 0.03,-0.06 0.04,-0.09 0.09,-0.3 0.23,-0.57 0.4,-0.83 0.32,-0.48 0.73,-0.88 1.18,-1.22 0.35,-0.27 0.71,-0.52 1.06,-0.78 0.09,-0.06 0.13,-0.12 0.13,-0.24 -0.01,-0.51 0,-1.03 0,-1.55 0,-0.04 -0.01,-0.09 -0.01,-0.14l-2.83 0z"/>
   <path class="fil1" d="M8.4 32.81l0.45 0 0.26 -0.93 1.07 0 0.25 0.93 0.47 0 -0.99 -3.57 -0.52 0 -0.99 3.57zm0.81 -1.35l0.43 -1.57 0 0 0.43 1.57 -0.86 0zm3.92 1.35l0.5 0 -0.79 -1.5c0.48,-0.12 0.68,-0.42 0.68,-0.9l0 -0.22c0,-0.68 -0.36,-0.95 -1.11,-0.95l-1.03 0 0 3.57 0.46 0 0 -1.44 0.53 0 0.76 1.44zm-1.29 -1.86l0 -1.29 0.58 0c0.43,0 0.64,0.1 0.64,0.55l0 0.19c0,0.44 -0.21,0.55 -0.64,0.55l-0.58 0zm3.32 1.89c0.74,0 1.05,-0.36 1.12,-1.05l-0.44 -0.06c-0.04,0.46 -0.2,0.69 -0.68,0.69 -0.45,0 -0.69,-0.27 -0.69,-0.81l0 -1.17c0,-0.54 0.25,-0.81 0.69,-0.81 0.44,0 0.64,0.17 0.68,0.68l0.46 -0.06c-0.06,-0.75 -0.42,-1.05 -1.14,-1.05 -0.69,0 -1.15,0.38 -1.15,1.22l0 1.2c0,0.83 0.46,1.22 1.15,1.22zm1.35 -0.03l0.45 0 0.26 -0.93 1.07 0 0.25 0.93 0.47 0 -0.99 -3.57 -0.52 0 -0.99 3.57zm0.81 -1.35l0.43 -1.57 0 0 0.43 1.57 -0.86 0zm2.17 1.35l1.09 0c0.73,0 1.15,-0.36 1.15,-1.19l0 -1.19c0,-0.84 -0.42,-1.19 -1.15,-1.19l-1.09 0 0 3.57zm0.46 -0.42l0 -2.73 0.63 0c0.47,0 0.69,0.22 0.69,0.78l0 1.17c0,0.56 -0.22,0.78 -0.69,0.78l-0.63 0zm2.41 0.42l1.92 0 -0.07 -0.43 -1.39 0 0 -1.24 1.03 0 0 -0.44 -1.03 0 0 -1.03 1.39 0 0.07 -0.43 -1.92 0 0 3.57z"/>
  </g>
 </g>
</svg>
