<?xml version="1.0" encoding="UTF-8"?>
<!DOCTYPE svg PUBLIC "-//W3C//DTD SVG 1.1//EN" "http://www.w3.org/Graphics/SVG/1.1/DTD/svg11.dtd">
<!-- Creator: CorelDRAW 2021 (64-Bit) -->
<svg xmlns="http://www.w3.org/2000/svg" xml:space="preserve" width="285px" height="161px" version="1.1" style="shape-rendering:geometricPrecision; text-rendering:geometricPrecision; image-rendering:optimizeQuality; fill-rule:evenodd; clip-rule:evenodd"
viewBox="0 0 130.45 73.56"
 xmlns:xlink="http://www.w3.org/1999/xlink"
 xmlns:xodm="http://www.corel.com/coreldraw/odm/2003">
 <defs>
  <style type="text/css">
   <![CDATA[
    .fil0 {fill:#282829}
    .fil1 {fill:#282829;fill-rule:nonzero}
   ]]>
  </style>
 </defs>
 <g id="Layer_x0020_1">
  <metadata id="CorelCorpID_0Corel-Layer"/>
  <g id="_1932845639376">
   <path class="fil0" d="M46.65 0l0 0 0 0 0 0 0 0 -0.01 0 0 0 0 0 0 0 -0.01 0 0 0 0 0 0 0 -0.01 0 0 0 0 0 0 0 -0.04 0c-1.27,0.01 -2.55,0.13 -3.81,0.26 -0.84,0.08 -1.69,0.2 -2.5,0.43 -1.15,0.31 -2.28,0.71 -3.4,1.13 -0.6,0.22 -1.17,0.54 -1.76,0.81 0.02,0.06 0.05,0.12 0.07,0.18 0.28,-0.07 0.55,-0.18 0.83,-0.2 1.41,-0.14 2.82,-0.32 4.23,-0.37 1,-0.04 2,0.1 3,0.17 0.05,0 0.1,0 0.15,0.01 0.88,0.19 1.78,0.35 2.66,0.56 0.77,0.19 1.52,0.42 2.28,0.64 0.77,0.23 1.53,0.48 2.3,0.7 0.79,0.23 1.59,0.43 2.38,0.64 0.9,0.24 1.79,0.51 2.7,0.71 0.81,0.19 1.63,0.31 2.45,0.43 1.33,0.2 2.66,0.47 4,0.53 2.52,0.11 5.06,0.13 7.53,-0.54 0.97,-0.26 1.94,-0.51 2.91,-0.77 -0.02,-0.03 -0.04,-0.07 -0.05,-0.11 -1.37,-0.09 -2.73,-0.16 -4.1,-0.29 -0.95,-0.1 -1.9,-0.27 -2.84,-0.42 -0.33,-0.05 -0.66,-0.14 -0.98,-0.23 -0.83,-0.23 -1.67,-0.46 -2.49,-0.72 -0.89,-0.27 -1.76,-0.57 -2.63,-0.88 -0.99,-0.34 -1.97,-0.73 -2.96,-1.07 -0.7,-0.23 -1.41,-0.44 -2.13,-0.62 -0.77,-0.2 -1.54,-0.38 -2.32,-0.53 -0.58,-0.11 -1.17,-0.18 -1.76,-0.23 -1.23,-0.09 -2.46,-0.22 -3.69,-0.22zm39.7 2.78c-0.73,0.05 -1.45,0.13 -2.16,0.22 -0.43,0.05 -0.86,0.12 -1.28,0.22 -0.73,0.16 -1.45,0.34 -2.17,0.52 -0.85,0.2 -1.71,0.37 -2.54,0.63 -1.04,0.33 -2.07,0.72 -3.1,1.11 -1.23,0.47 -2.47,0.92 -3.66,1.46 -1.71,0.77 -3.4,1.6 -5.08,2.44 -2.09,1.05 -4.18,2.13 -6.26,3.23 -2.17,1.15 -4.46,2.02 -6.85,2.57 -1.2,0.28 -2.43,0.48 -3.65,0.56 -2.22,0.15 -4.43,0.1 -6.64,-0.16 -0.43,-0.06 -0.86,-0.11 -1.28,-0.21 -0.99,-0.23 -1.98,-0.46 -2.95,-0.74 -0.96,-0.28 -1.91,-0.62 -2.86,-0.93 -0.29,-0.1 -0.59,-0.18 -0.97,-0.29 0.07,0.17 0.08,0.21 0.1,0.22 2.05,1.22 4.12,2.4 6.4,3.14 1.7,0.55 3.42,1.1 5.16,1.5 1.28,0.28 2.61,0.31 3.92,0.45 0.29,0.03 0.59,0.04 0.88,0.05 0.75,0.03 1.52,0.13 2.27,0.07 1.58,-0.13 3.16,-0.32 4.74,-0.53 0.8,-0.1 1.61,-0.23 2.39,-0.42 1.07,-0.27 2.13,-0.59 3.18,-0.92 1.03,-0.33 2.07,-0.64 3.08,-1.05 1.26,-0.51 2.52,-1.06 3.74,-1.68 1.77,-0.92 3.54,-1.86 5.26,-2.87 1.72,-1.02 3.34,-2.21 5.08,-3.19 1.4,-0.8 2.89,-1.48 4.4,-2.06 1.2,-0.47 2.48,-0.74 3.75,-1.03 1.27,-0.29 2.55,-0.56 3.85,-0.72 1.25,-0.16 2.51,-0.18 3.77,-0.23 0.43,-0.02 0.85,-0.02 1.28,-0.01 0.24,0 0.48,0 0.71,0 0.15,0 0.3,-0.02 0.45,-0.04 -0.85,-0.29 -1.69,-0.54 -2.54,-0.7 -1.22,-0.24 -2.46,-0.44 -3.7,-0.58 -1.05,-0.12 -2.12,-0.19 -3.19,-0.19 0,0 -0.01,0 -0.02,0 -1.17,0 -2.34,0.09 -3.51,0.16zm-49.61 0.96c-0.63,0.06 -1.27,0.14 -1.91,0.23 -0.34,0.05 -0.69,0.12 -1.03,0.21 -0.82,0.23 -1.63,0.47 -2.44,0.73 -0.96,0.32 -1.9,0.67 -2.86,1.02 0.05,0.09 0.07,0.13 0.09,0.13 0.08,0.02 0.16,0.03 0.24,0.03 0.69,0 1.38,0 2.08,-0.01 2.65,-0.03 5.3,-0.07 7.93,0.39 0.66,0.12 1.31,0.27 1.94,0.46 0.92,0.27 1.82,0.6 2.73,0.9 0.72,0.24 1.43,0.49 2.16,0.7 0.8,0.24 1.61,0.46 2.42,0.65 0.71,0.17 1.43,0.3 2.15,0.43 1.1,0.19 2.2,0.41 3.31,0.52 0.91,0.1 1.85,0.09 2.77,0.05 1.29,-0.04 2.58,-0.08 3.86,-0.25 0.99,-0.14 1.97,-0.45 2.94,-0.74 0.95,-0.29 1.87,-0.65 2.81,-0.98 -0.01,-0.05 -0.02,-0.09 -0.03,-0.14 -0.11,-0.01 -0.23,-0.04 -0.35,-0.04 -2.03,0.02 -4.06,0.01 -6.08,-0.38 -1.12,-0.21 -2.27,-0.35 -3.39,-0.59 -1.28,-0.28 -2.54,-0.63 -3.81,-0.96 -1.23,-0.33 -2.46,-0.7 -3.69,-1.02 -1.5,-0.39 -3,-0.84 -4.52,-1.09 -1.51,-0.26 -3.04,-0.35 -4.57,-0.41 -0.11,-0.01 -0.23,-0.01 -0.35,-0.01 -0.79,0 -1.6,0.11 -2.4,0.17zm56.88 2.51c-1.03,0.23 -2.08,0.34 -3.08,0.64 -1.5,0.45 -3,0.94 -4.43,1.58 -2.14,0.95 -4.25,2 -6.32,3.11 -2.86,1.55 -5.58,3.36 -8.57,4.69 -1.17,0.52 -2.35,1 -3.54,1.47 -0.84,0.33 -1.68,0.63 -2.54,0.9 -0.75,0.24 -1.51,0.45 -2.28,0.64 -0.71,0.17 -1.43,0.29 -2.15,0.43 -0.98,0.18 -1.97,0.42 -2.96,0.53 -1.2,0.13 -2.42,0.15 -3.63,0.22 -0.08,0.01 -0.16,0.03 -0.25,0.04l0 0.1c0.47,0.09 0.95,0.18 1.42,0.29 0.83,0.17 1.64,0.39 2.47,0.52 1.03,0.16 2.07,0.35 3.11,0.35 2.22,0 4.44,-0.03 6.64,-0.2 1.26,-0.09 2.51,-0.43 3.76,-0.71 1.08,-0.24 2.17,-0.48 3.22,-0.83 1.3,-0.44 2.59,-0.94 3.85,-1.5 1.57,-0.7 3.14,-1.43 4.65,-2.26 2.24,-1.23 4.41,-2.6 6.64,-3.86 2.15,-1.2 4.45,-2.05 6.79,-2.8 1.08,-0.34 2.2,-0.58 3.32,-0.82 1.32,-0.27 2.65,-0.58 4,-0.72 1.55,-0.16 3.13,-0.16 4.7,-0.2 0.33,-0.01 0.67,0.09 1.01,0.14 0.01,-0.04 0.02,-0.08 0.03,-0.12 -0.3,-0.1 -0.6,-0.21 -0.9,-0.3 -0.82,-0.24 -1.63,-0.51 -2.46,-0.71 -0.74,-0.18 -1.49,-0.3 -2.24,-0.43 -1.15,-0.19 -2.3,-0.47 -3.46,-0.52 -0.88,-0.03 -1.77,-0.07 -2.65,-0.07 -1.39,0 -2.78,0.09 -4.15,0.4zm-64.76 1.37c-1.12,0.23 -2.23,0.48 -3.33,0.78 -1.67,0.44 -3.16,1.28 -4.56,2.36 0.27,-0.02 0.53,-0.02 0.8,-0.05 0.86,-0.11 1.71,-0.32 2.57,-0.33 1.66,-0.01 3.32,0.09 4.99,0.17 0.7,0.03 1.4,0.13 2.11,0.22 0.38,0.04 0.75,0.12 1.13,0.21 0.76,0.17 1.51,0.35 2.26,0.54 0.83,0.21 1.65,0.43 2.48,0.65 0.87,0.24 1.73,0.5 2.61,0.69 0.79,0.18 1.6,0.3 2.4,0.43 1.13,0.19 2.27,0.49 3.41,0.51 1.97,0.05 3.94,-0.06 5.91,-0.13 1.33,-0.04 2.61,-0.35 3.87,-0.77 1.32,-0.44 2.64,-0.91 3.96,-1.36 -0.02,-0.06 -0.03,-0.11 -0.04,-0.17 -0.12,-0.01 -0.25,-0.03 -0.36,-0.02 -0.63,0.11 -1.26,0.29 -1.89,0.32 -2.05,0.11 -4.11,0.1 -6.15,-0.17 -0.4,-0.06 -0.8,-0.12 -1.18,-0.22 -0.87,-0.23 -1.74,-0.46 -2.6,-0.73 -1.03,-0.33 -2.05,-0.7 -3.08,-1.03 -0.96,-0.31 -1.91,-0.64 -2.88,-0.9 -0.97,-0.25 -1.95,-0.43 -2.93,-0.62 -1.05,-0.2 -2.11,-0.48 -3.17,-0.52 -1.09,-0.05 -2.19,-0.12 -3.29,-0.12 -1.01,0 -2.03,0.06 -3.04,0.26z"/>
   <path class="fil1" d="M22.6 33.78c0,-1.11 -0.18,-2.14 -0.55,-3.09 -0.36,-0.95 -0.87,-1.76 -1.54,-2.44 -0.67,-0.69 -1.47,-1.22 -2.4,-1.59 -0.94,-0.38 -1.96,-0.57 -3.07,-0.57l-8.57 0 0 15.34 8.57 0c1.11,0 2.13,-0.19 3.07,-0.57 0.93,-0.38 1.73,-0.9 2.4,-1.59 0.67,-0.68 1.18,-1.49 1.54,-2.42 0.37,-0.93 0.55,-1.96 0.55,-3.07zm-19.26 21.81l0 -29.08 -3.34 -1.13 17.33 0c1.17,0 2.27,0.23 3.28,0.67 1.02,0.45 1.9,1.05 2.66,1.8 0.75,0.75 1.35,1.64 1.79,2.65 0.45,1.02 0.67,2.11 0.67,3.28 0,1.17 -0.22,2.26 -0.67,3.28 -0.44,1.02 -1.04,1.9 -1.79,2.65 -0.76,0.75 -1.64,1.35 -2.66,1.78 -1.01,0.43 -2.11,0.64 -3.28,0.64l-2.96 0c2.03,0.73 3.65,2.01 4.84,3.85l6.06 9.44 3.34 1.29 -8.52 0 1.76 -0.79 -7.69 -12.03c-0.39,-0.59 -0.78,-1.02 -1.17,-1.32 -0.39,-0.29 -0.96,-0.44 -1.71,-0.44l-4.81 0 0 13.46 3.3 1.12 -9.77 0 3.34 -1.12z"/>
   <polygon class="fil1" points="34.92,55.59 34.92,26.51 31.58,25.38 41.35,25.38 38.05,26.51 38.05,55.59 41.35,56.71 31.58,56.71 "/>
   <polygon class="fil1" points="46.2,26.64 43.07,25.38 51.88,25.38 49.5,26.51 59.86,52.03 69.92,27.1 67.84,25.38 73.6,25.38 70.72,27.1 58.48,57.34 "/>
   <path class="fil1" d="M78.61 55.59l0 -29.08 -3.34 -1.13 21.97 0 0.75 6.86c-0.41,-1.29 -0.9,-2.32 -1.46,-3.12 -0.56,-0.79 -1.21,-1.41 -1.96,-1.86 -0.75,-0.44 -1.6,-0.74 -2.55,-0.89 -0.95,-0.16 -2.03,-0.23 -3.26,-0.23l-7.01 0 0 14.37 9.56 0 2.26 -3.3 0 7.39 -2.26 -3.34 -9.56 0 0 14.7 7.89 0c1.23,0 2.31,-0.08 3.26,-0.23 0.94,-0.15 1.79,-0.45 2.55,-0.9 0.75,-0.44 1.41,-1.06 1.98,-1.86 0.57,-0.79 1.07,-1.83 1.48,-3.11l-0.75 6.85 -22.89 0 3.34 -1.12z"/>
   <path class="fil1" d="M124.44 33.78c0,-1.11 -0.19,-2.14 -0.55,-3.09 -0.36,-0.95 -0.87,-1.76 -1.54,-2.44 -0.67,-0.69 -1.47,-1.22 -2.4,-1.59 -0.94,-0.38 -1.96,-0.57 -3.08,-0.57l-8.56 0 0 15.34 8.56 0c1.12,0 2.14,-0.19 3.08,-0.57 0.93,-0.38 1.73,-0.9 2.4,-1.59 0.67,-0.68 1.18,-1.49 1.54,-2.42 0.36,-0.93 0.55,-1.96 0.55,-3.07zm-19.26 21.81l0 -29.08 -3.34 -1.13 17.33 0c1.17,0 2.26,0.23 3.28,0.67 1.02,0.45 1.9,1.05 2.65,1.8 0.76,0.75 1.35,1.64 1.8,2.65 0.45,1.02 0.67,2.11 0.67,3.28 0,1.17 -0.22,2.26 -0.67,3.28 -0.45,1.02 -1.04,1.9 -1.8,2.65 -0.75,0.75 -1.63,1.35 -2.65,1.78 -1.02,0.43 -2.11,0.64 -3.28,0.64l-2.96 0c2.03,0.73 3.64,2.01 4.84,3.85l6.06 9.44 3.34 1.29 -8.52 0 1.75 -0.79 -7.68 -12.03c-0.39,-0.59 -0.78,-1.02 -1.17,-1.32 -0.39,-0.29 -0.96,-0.44 -1.71,-0.44l-4.81 0 0 13.46 3.3 1.12 -9.77 0 3.34 -1.12z"/>
   <polygon class="fil1" points="37.29,72.94 37.29,61.67 36,61.24 39.79,61.24 38.51,61.67 38.51,72.94 39.79,73.38 36,73.38 "/>
   <path class="fil1" d="M52.88 73.48c-0.75,0 -1.46,-0.17 -2.12,-0.49 -0.66,-0.32 -1.23,-0.76 -1.73,-1.32 -0.5,-0.55 -0.89,-1.2 -1.17,-1.95 -0.29,-0.74 -0.43,-1.54 -0.43,-2.4 0,-0.85 0.14,-1.65 0.43,-2.4 0.28,-0.75 0.68,-1.4 1.18,-1.96 0.5,-0.55 1.09,-0.99 1.77,-1.32 0.68,-0.32 1.41,-0.48 2.2,-0.48 0.58,0 1.09,0.03 1.52,0.11 0.42,0.08 0.78,0.16 1.07,0.26 0.35,0.11 0.64,0.23 0.89,0.37l-0.6 2.51c-0.1,-0.88 -0.4,-1.6 -0.88,-2.15 -0.48,-0.55 -1.19,-0.83 -2.13,-0.83 -0.58,0 -1.13,0.12 -1.65,0.37 -0.52,0.24 -0.97,0.59 -1.36,1.05 -0.39,0.46 -0.69,1.02 -0.91,1.69 -0.22,0.67 -0.34,1.43 -0.34,2.28 0,0.96 0.14,1.82 0.42,2.56 0.27,0.74 0.64,1.37 1.11,1.88 0.46,0.51 1,0.89 1.62,1.16 0.61,0.26 1.26,0.39 1.94,0.39 0.6,0 1.13,-0.08 1.58,-0.24 0.44,-0.16 0.82,-0.34 1.12,-0.54 0.36,-0.21 0.66,-0.46 0.92,-0.76 -0.28,0.41 -0.63,0.78 -1.05,1.11 -0.37,0.28 -0.83,0.53 -1.38,0.76 -0.56,0.22 -1.23,0.34 -2.02,0.34z"/>
   <path class="fil1" d="M70.09 61.43c-0.58,0 -1.13,0.13 -1.65,0.38 -0.52,0.26 -0.97,0.63 -1.36,1.12 -0.39,0.49 -0.7,1.1 -0.92,1.84 -0.23,0.73 -0.34,1.58 -0.34,2.55 0,0.97 0.11,1.81 0.34,2.55 0.22,0.73 0.53,1.34 0.92,1.83 0.39,0.49 0.84,0.87 1.36,1.12 0.52,0.25 1.07,0.38 1.65,0.38 0.58,0 1.13,-0.13 1.65,-0.38 0.52,-0.25 0.97,-0.63 1.36,-1.12 0.39,-0.49 0.7,-1.1 0.92,-1.83 0.23,-0.74 0.34,-1.58 0.34,-2.55 0,-0.97 -0.11,-1.82 -0.34,-2.55 -0.22,-0.74 -0.53,-1.35 -0.92,-1.84 -0.39,-0.49 -0.84,-0.86 -1.36,-1.12 -0.52,-0.25 -1.07,-0.38 -1.65,-0.38zm0 12.06c-0.76,0 -1.47,-0.16 -2.13,-0.48 -0.66,-0.33 -1.24,-0.77 -1.74,-1.33 -0.5,-0.56 -0.89,-1.22 -1.17,-1.96 -0.29,-0.74 -0.43,-1.54 -0.43,-2.4 0,-0.85 0.14,-1.65 0.43,-2.4 0.28,-0.75 0.67,-1.41 1.17,-1.97 0.5,-0.56 1.08,-1 1.74,-1.32 0.66,-0.33 1.37,-0.49 2.13,-0.49 0.75,0 1.46,0.16 2.13,0.49 0.66,0.32 1.24,0.76 1.74,1.32 0.49,0.56 0.89,1.22 1.17,1.97 0.29,0.75 0.43,1.55 0.43,2.4 0,0.86 -0.14,1.66 -0.43,2.4 -0.28,0.74 -0.68,1.4 -1.17,1.96 -0.5,0.56 -1.08,1 -1.74,1.33 -0.67,0.32 -1.38,0.48 -2.13,0.48z"/>
   <polygon class="fil1" points="84.46,72.73 84.46,61.68 83.17,61.24 85.47,61.24 92.87,70.98 92.87,61.9 91.59,61.24 94.45,61.24 93.16,61.9 93.16,73.56 84.74,62.31 84.74,72.73 86.03,73.39 83.17,73.39 "/>
  </g>
 </g>
</svg>
