<?xml version="1.0" encoding="UTF-8"?>
<!DOCTYPE svg PUBLIC "-//W3C//DTD SVG 1.1//EN" "http://www.w3.org/Graphics/SVG/1.1/DTD/svg11.dtd">
<!-- Creator: CorelDRAW 2021 (64-Bit) -->
<svg xmlns="http://www.w3.org/2000/svg" xml:space="preserve" width="211px" height="208px" version="1.1" style="shape-rendering:geometricPrecision; text-rendering:geometricPrecision; image-rendering:optimizeQuality; fill-rule:evenodd; clip-rule:evenodd"
viewBox="0 0 167.79 165.58"
 xmlns:xlink="http://www.w3.org/1999/xlink"
 xmlns:xodm="http://www.corel.com/coreldraw/odm/2003">
 <defs>
  <style type="text/css">
   <![CDATA[
    .fil1 {fill:#282829}
    .fil0 {fill:#282829;fill-rule:nonzero}
   ]]>
  </style>
 </defs>
 <g id="Layer_x0020_1">
  <metadata id="CorelCorpID_0Corel-Layer"/>
  <g id="_1932495916224">
   <g>
    <polygon class="fil0" points="15.92,155.6 15.92,165.37 13.23,165.37 13.23,155.6 9.5,155.6 9.5,153.11 19.65,153.11 19.65,155.6 "/>
    <path class="fil0" d="M29.9 157.3c0,-1.16 -0.8,-1.75 -2.12,-1.75l-2.67 0 0 3.51 2.73 0c1.31,0 2.06,-0.7 2.06,-1.73l0 -0.03zm-0.05 8.07l-2.63 -3.93 -2.11 0 0 3.93 -2.7 0 0 -12.26 5.6 0c2.89,0 4.62,1.53 4.62,4.05l0 0.03c0,1.98 -1.07,3.22 -2.62,3.8l2.99 4.38 -3.15 0z"/>
    <path class="fil0" d="M41.17 156.26l-1.63 3.98 3.25 0 -1.62 -3.98zm3.71 9.11l-1.12 -2.75 -5.18 0 -1.12 2.75 -2.75 0 5.25 -12.34 2.48 0 5.25 12.34 -2.81 0z"/>
    <path class="fil0" d="M58.75 159.24c0,-2.17 -1.49,-3.69 -3.69,-3.69l-2.09 0 0 7.38 2.09 0c2.2,0 3.69,-1.48 3.69,-3.66l0 -0.03zm-3.69 6.13l-4.78 0 0 -12.26 4.78 0c3.85,0 6.51,2.64 6.51,6.09l0 0.04c0,3.45 -2.66,6.13 -6.51,6.13z"/>
    <polygon class="fil0" points="64.66,165.37 64.66,153.11 73.9,153.11 73.9,155.51 67.34,155.51 67.34,158 73.11,158 73.11,160.39 67.34,160.39 67.34,162.97 73.99,162.97 73.99,165.37 "/>
    <path class="fil0" d="M88.77 165.58c-3.61,0 -6.28,-2.79 -6.28,-6.31l0 -0.03c0,-3.49 2.62,-6.34 6.38,-6.34 2.31,0 3.7,0.77 4.83,1.89l-1.71 1.98c-0.95,-0.86 -1.91,-1.38 -3.13,-1.38 -2.07,0 -3.56,1.71 -3.56,3.81l0 0.04c0,2.1 1.46,3.85 3.56,3.85 1.4,0 2.25,-0.56 3.22,-1.44l1.71 1.74c-1.26,1.35 -2.66,2.19 -5.02,2.19z"/>
    <polygon class="fil0" points="96.64,165.37 96.64,153.11 105.88,153.11 105.88,155.51 99.32,155.51 99.32,158 105.09,158 105.09,160.39 99.32,160.39 99.32,162.97 105.97,162.97 105.97,165.37 "/>
    <polygon class="fil0" points="117.65,165.37 111.72,157.58 111.72,165.37 109.06,165.37 109.06,153.11 111.54,153.11 117.29,160.66 117.29,153.11 119.95,153.11 119.95,165.37 "/>
    <polygon class="fil0" points="129.13,155.6 129.13,165.37 126.43,165.37 126.43,155.6 122.71,155.6 122.71,153.11 132.86,153.11 132.86,155.6 "/>
    <path class="fil0" d="M143.11 157.3c0,-1.16 -0.81,-1.75 -2.12,-1.75l-2.68 0 0 3.51 2.73 0c1.31,0 2.07,-0.7 2.07,-1.73l0 -0.03zm-0.05 8.07l-2.63 -3.93 -2.12 0 0 3.93 -2.69 0 0 -12.26 5.6 0c2.89,0 4.62,1.53 4.62,4.05l0 0.03c0,1.98 -1.07,3.22 -2.63,3.8l3 4.38 -3.15 0z"/>
    <polygon class="fil0" points="148.96,165.37 148.96,153.11 158.21,153.11 158.21,155.51 151.64,155.51 151.64,158 157.42,158 157.42,160.39 151.64,160.39 151.64,162.97 158.29,162.97 158.29,165.37 "/>
   </g>
   <path class="fil1" d="M133.66 0.03c0,0.2 -0.01,0.4 0,0.6 0.33,5.3 -0.41,10.48 -1.75,15.6 -1.64,6.27 -4.09,12.22 -6.98,18.01 -3.76,7.52 -8.18,14.63 -13.01,21.49 -3.82,5.43 -7.87,10.67 -12.21,15.7 -0.2,0.23 -0.41,0.46 -0.62,0.69 -0.06,-0.03 -0.11,-0.06 -0.16,-0.09 0.07,-0.27 0.14,-0.54 0.22,-0.81 2.6,-8.92 4.72,-17.95 5.84,-27.19 0.8,-6.52 1.1,-13.04 0.37,-19.58 -0.27,-2.5 -0.74,-4.97 -1.51,-7.37 -0.11,-0.33 -0.26,-0.65 -0.39,-0.98 -0.01,1.51 0.14,2.95 0.26,4.41 0.73,8.01 0.45,15.98 -0.79,23.93 -1.24,7.97 -3.49,15.66 -6.75,23.04 -6.34,14.33 -15.73,26.38 -27.47,36.66 -3.61,3.16 -7.45,6.03 -11.39,8.76 -2.27,1.57 -4.31,3.4 -6.06,5.54 -2.89,3.56 -4.29,7.53 -3.39,12.14 0.79,4.05 3.1,6.64 7.17,7.58 2.71,0.62 5.39,0.44 8.1,-0.25 -0.18,-0.07 -0.37,-0.13 -0.55,-0.21 -0.87,-0.41 -1.79,-0.73 -2.6,-1.24 -2.58,-1.64 -3.62,-4.03 -3.19,-7.04 0.34,-2.31 1.37,-4.34 2.65,-6.24 1.73,-2.56 3.86,-4.77 6.21,-6.76 6.24,-5.29 12.33,-10.75 18.25,-16.4 8.49,-8.09 16.43,-16.7 23.63,-25.97 5.92,-7.63 11.27,-15.64 15.75,-24.21 3.6,-6.9 6.59,-14.06 8.66,-21.58 1.43,-5.22 2.39,-10.53 2.69,-15.94 0.2,-3.75 0.08,-7.48 -0.56,-11.18 -0.07,-0.39 -0.16,-0.76 -0.24,-1.14l-0.18 0.03zm10.87 33.98c-1.87,3.6 -3.65,7.25 -5.65,10.78 -4.4,7.8 -9.57,15.09 -15.3,21.97 -3.16,3.8 -6.41,7.52 -9.99,10.93 -2,1.92 -4,3.84 -6.01,5.76 -0.2,0.2 -0.39,0.41 -0.63,0.66 0.58,-0.05 0.58,-0.05 0.92,-0.32 5.93,-4.75 11.78,-9.59 17.31,-14.8 4.2,-3.95 8.24,-8.03 11.64,-12.71 2.59,-3.55 5.06,-7.15 6.77,-11.23 1.34,-3.23 2.09,-6.56 1.78,-10.07 -0.04,-0.59 -0.06,-1.18 -0.39,-1.84 -0.19,0.36 -0.32,0.62 -0.45,0.87zm-2.51 30.66c-1.44,1.28 -2.87,2.57 -4.32,3.84 -3.04,2.65 -6.07,5.31 -9.4,7.6 -1.39,0.97 -2.73,2.01 -4.11,2.99 -0.76,0.54 -1.53,1.06 -2.33,1.53 -1.85,1.11 -3.73,2.18 -5.59,3.29 -0.52,0.31 -1.01,0.68 -1.51,1.02 0.01,0.06 0.02,0.13 0.03,0.19 0.16,-0.04 0.33,-0.06 0.49,-0.11 2.05,-0.57 4.05,-1.31 6.02,-2.14 4.34,-1.81 8.62,-3.75 12.57,-6.33 2.24,-1.46 4.33,-3.09 6.07,-5.14 1.2,-1.41 2.17,-2.97 2.67,-4.77 0.21,-0.78 0.44,-1.56 0.23,-2.54 -0.32,0.23 -0.59,0.38 -0.82,0.57zm-0.49 15.92c-2.48,1.8 -5.17,3.28 -7.87,4.72 -1.92,1.03 -3.94,1.92 -5.97,2.71 -2.86,1.1 -5.77,2.06 -8.66,3.08 -0.31,0.12 -0.63,0.24 -0.94,0.36 0.21,0.13 0.38,0.13 0.54,0.11 1.68,-0.22 3.36,-0.43 5.04,-0.68 1.98,-0.3 3.98,-0.56 5.9,-1.22 1.52,-0.52 3.09,-0.91 4.56,-1.52 2.61,-1.11 4.82,-2.82 6.83,-4.81 0.78,-0.78 1.15,-1.74 1.51,-2.72 0.06,-0.15 0.01,-0.33 0.01,-0.65 -0.38,0.25 -0.67,0.42 -0.95,0.62zm-2.6 11.43c-1.23,0.59 -2.43,1.28 -3.7,1.76 -4.57,1.7 -9.31,2.84 -14.01,4.12 -0.27,0.07 -0.54,0.17 -0.81,0.25 0,0.06 0.01,0.12 0.01,0.19 0.48,0.04 0.95,0.13 1.43,0.13 3.42,0 6.81,-0.33 10.16,-1.06 2.17,-0.48 4.21,-1.21 5.96,-2.59 0.66,-0.52 1.22,-1.16 1.78,-1.79 0.33,-0.39 0.57,-0.87 0.58,-1.62 -0.55,0.24 -0.98,0.41 -1.4,0.61zm-50.53 5.57c-4.34,4.34 -8.88,8.46 -13.46,12.55 -0.41,0.37 -0.54,0.76 -0.54,1.29 0.02,3.65 0.01,7.3 0.01,10.95 -0.01,0.64 -0.01,1.29 -0.07,1.93 -0.21,1.97 -0.88,3.69 -2.69,4.77 -1.6,0.95 -3.34,1.19 -5.15,0.88 -2.85,-0.47 -4.64,-2.3 -5.11,-5.14 -0.09,-0.53 -0.16,-1.07 -0.23,-1.61 -0.09,0.02 -0.17,0.01 -0.2,0.04 -1.31,1.67 -2.43,3.44 -2.93,5.53 -0.37,1.53 -0.17,2.99 0.85,4.22 0.63,0.75 1.35,1.45 2.12,2.06 1.3,1.01 2.81,1.68 4.36,2.21 0.96,0.33 1.94,0.6 3.12,0.96 -4.77,1.19 -9.32,2.47 -14.14,1.32 0.21,0.14 0.4,0.32 0.63,0.42 1.25,0.55 2.48,1.17 3.78,1.61 2,0.67 4.08,0.97 6.19,1.12 3.76,0.28 7.47,0.05 11.12,-0.94 5.85,-1.57 9.82,-5.19 11.78,-10.95 0.92,-2.72 1.18,-5.53 1.19,-8.38 0.02,-8.14 0.01,-16.29 0.01,-24.44 0,-0.25 -0.04,-0.49 -0.07,-0.86 -0.26,0.21 -0.43,0.32 -0.57,0.46zm-72.61 1.57c-6.09,1.97 -10.74,5.67 -13.59,11.48 -1.84,3.74 -2.43,7.72 -2.12,11.84 0.31,4.09 1.66,7.81 4.12,11.1 3.5,4.69 8.25,7.4 13.89,8.65 3.72,0.83 7.48,0.81 11.24,0.24 4.9,-0.72 9.3,-2.64 13.24,-5.62 0.38,-0.28 0.56,-0.59 0.56,-1.09 -0.01,-6.16 -0.01,-12.32 -0.01,-18.49 0,-0.22 -0.05,-0.44 -0.08,-0.64 -1.55,-0.2 -20.1,-0.12 -20.69,0.08l0 8.97c0.36,0.02 0.68,0.04 0.99,0.05 0.74,0 1.49,0 2.23,0 1.04,0 2.08,0 3.12,0 0.3,0 0.61,0.04 0.96,0.06l0 2.82c0,1.6 -0.04,1.65 -1.6,2.06 -0.11,0.03 -0.23,0.05 -0.34,0.07 -1.5,0.31 -3.03,0.34 -4.53,0.15 -3.18,-0.4 -5.71,-1.87 -7.29,-4.72 -1.78,-3.22 -1.86,-6.59 -0.52,-9.97 1.02,-2.58 2.95,-4.3 5.58,-5.21 1.87,-0.66 3.78,-0.65 5.71,-0.29 2.32,0.44 4.34,1.52 6.21,2.91 0.25,0.19 0.5,0.36 0.8,0.58 2.68,-3.24 5.3,-6.41 8,-9.66 -0.29,-0.26 -0.48,-0.48 -0.72,-0.64 -1.35,-0.92 -2.66,-1.91 -4.08,-2.71 -3.42,-1.92 -7.12,-2.89 -11.03,-3.11 -0.71,-0.04 -1.42,-0.06 -2.13,-0.06 -2.68,0 -5.33,0.31 -7.92,1.15zm116.16 -0.09c-0.16,1.16 -0.11,42.15 0.06,42.78 0.88,0.17 13.47,0.13 14.23,-0.06 0,-2.27 0,-4.57 0,-6.87 0.01,-2.33 0,-4.65 0.01,-7.07l19.96 0c0.19,-1.19 0.13,-10.48 -0.07,-11.17l-2.76 0 -2.9 0 -2.8 0 -2.89 0 -2.81 0c-0.96,0 -1.93,0 -2.89,0 -0.92,-0.01 -1.85,-0.02 -2.79,-0.03l0 -5.42 21.49 0 0 -12.19c-0.44,-0.09 -8.02,-0.13 -16.1,-0.13 -9.36,0 -19.38,0.06 -19.74,0.16zm-37.56 -0.09c-0.03,0.01 -0.06,0.03 -0.08,0.05 -0.02,0.02 -0.03,0.04 -0.08,0.11 -0.01,0.1 -0.03,0.24 -0.03,0.38 0,13.99 0,27.98 0,41.97 0,0.09 0.03,0.17 0.05,0.26 0.01,0.02 0.03,0.04 0.05,0.07 0.02,0.02 0.04,0.04 0.08,0.09l34.31 0 0 -12.25 -5.02 0 -5 0c-1.7,0 -3.39,0 -5.09,0 -0.52,-0.01 -1.05,0 -1.59,0 -1.12,0 -2.27,0.01 -3.44,-0.04l0 -30.56c-0.16,-0.06 -0.24,-0.12 -0.32,-0.12 -4.3,-0.01 -8.59,-0.01 -12.89,-0.02 -0.31,0 -0.63,0.04 -0.95,0.06zm-47.77 0l0 24.83c0.06,0.01 0.11,0.02 0.17,0.03 0.06,-0.15 0.13,-0.3 0.18,-0.46 0.48,-1.51 1.19,-2.92 2.07,-4.23 1.64,-2.46 3.71,-4.51 6.04,-6.29 1.79,-1.37 3.63,-2.66 5.46,-3.97 0.44,-0.31 0.66,-0.65 0.65,-1.22 -0.03,-2.66 -0.01,-5.31 -0.02,-7.97 0,-0.23 -0.03,-0.45 -0.06,-0.72l-14.49 0z"/>
  </g>
 </g>
</svg>
