<?xml version="1.0" encoding="UTF-8"?>
<!DOCTYPE svg PUBLIC "-//W3C//DTD SVG 1.1//EN" "http://www.w3.org/Graphics/SVG/1.1/DTD/svg11.dtd">
<!-- Creator: CorelDRAW 2021 (64-Bit) -->
<svg xmlns="http://www.w3.org/2000/svg" xml:space="preserve" width="280px" height="174px" version="1.1" style="shape-rendering:geometricPrecision; text-rendering:geometricPrecision; image-rendering:optimizeQuality; fill-rule:evenodd; clip-rule:evenodd"
viewBox="0 0 76.25 47.29"
 xmlns:xlink="http://www.w3.org/1999/xlink"
 xmlns:xodm="http://www.corel.com/coreldraw/odm/2003">
 <defs>
  <style type="text/css">
   <![CDATA[
    .fil0 {fill:#282829}
    .fil1 {fill:#282829;fill-rule:nonzero}
   ]]>
  </style>
 </defs>
 <g id="Layer_x0020_1">
  <metadata id="CorelCorpID_0Corel-Layer"/>
  <g id="_1933073273552">
   <path class="fil0" d="M30.87 7.25l0.91 0.91 6.35 -6.35 6.34 6.34 0.9 -0.91 -7.24 -7.24 -7.26 7.25zm15.06 0.93l0 10.26 3.71 4.12 0 -14.38 -3.71 0zm-19.15 0l0 14.38 3.71 -4.12 0 -10.26 -3.71 0zm-6.74 9.9l6.73 6.73 0.91 -0.9 -5.83 -5.83 3.66 -3.66 -0.9 -0.9 -4.57 4.56zm30.79 -3.57l3.57 3.57 -5.8 5.81 0.9 0.9 6.71 -6.71 -4.48 -4.47 -0.9 0.9zm-23.06 11.96l-1.02 6.26 14.51 -14.5 -2.62 -2.63 -10.87 10.87zm11.84 -3.91l10.17 10.17 0.08 -5.17 -7.63 -7.62 -2.62 2.62zm-3.06 4.43l1.74 1.74 1.74 -1.74 -1.74 -1.74 -1.74 1.74zm1.72 4.83l-2.95 -2.94 -0.9 0.9 3.85 3.85 3.84 -3.85 -0.9 -0.9 -2.94 2.94z"/>
   <g>
    <polygon class="fil1" points="3.07,46.84 1.58,46.84 0,41.1 1.38,41.1 2.37,45.12 3.47,41.1 4.54,41.1 5.65,45.12 6.64,41.1 8.02,41.1 6.43,46.84 4.94,46.84 4.01,43.45 "/>
    <polygon class="fil1" points="8.59,41.1 9.9,41.1 9.9,46.84 8.59,46.84 "/>
    <path class="fil1" d="M12.19 45.58l0.99 0c0.45,0 0.82,-0.15 1.1,-0.44 0.28,-0.29 0.42,-0.68 0.42,-1.17 0,-0.49 -0.14,-0.88 -0.42,-1.16 -0.28,-0.3 -0.65,-0.44 -1.1,-0.44l-0.99 0 0 3.21zm-1.31 -4.48l2.3 0c0.79,0 1.45,0.28 1.98,0.83 0.54,0.55 0.8,1.23 0.8,2.04 0,0.82 -0.26,1.5 -0.8,2.05 -0.53,0.55 -1.19,0.82 -1.98,0.82l-2.3 0 0 -5.74z"/>
    <polygon class="fil1" points="18.01,44.56 18.01,45.58 20.31,45.58 20.31,46.84 16.7,46.84 16.7,41.1 20.27,41.1 20.27,42.37 18.01,42.37 18.01,43.32 20.06,43.32 20.06,44.56 "/>
    <polygon class="fil1" points="26.78,42.12 24.59,45.58 26.82,45.58 26.82,46.84 22.89,46.84 22.89,45.82 25.09,42.37 22.93,42.37 22.93,41.1 26.78,41.1 "/>
    <path class="fil1" d="M28.38 43.97c0,0.5 0.16,0.91 0.48,1.23 0.31,0.32 0.71,0.48 1.19,0.48 0.48,0 0.87,-0.16 1.19,-0.48 0.32,-0.32 0.48,-0.73 0.48,-1.23 0,-0.49 -0.16,-0.9 -0.48,-1.23 -0.32,-0.31 -0.71,-0.47 -1.19,-0.47 -0.48,0 -0.88,0.16 -1.19,0.47 -0.32,0.32 -0.48,0.73 -0.48,1.23zm3.79 2.12c-0.58,0.58 -1.29,0.87 -2.12,0.87 -0.83,0 -1.53,-0.29 -2.11,-0.87 -0.58,-0.57 -0.87,-1.28 -0.87,-2.12 0,-0.84 0.29,-1.55 0.87,-2.12 0.58,-0.57 1.28,-0.86 2.11,-0.86 0.83,0 1.54,0.29 2.12,0.86 0.58,0.57 0.87,1.28 0.87,2.12 0,0.84 -0.29,1.55 -0.87,2.12z"/>
    <polygon class="fil1" points="36.97,44.22 36.97,41.1 38.28,41.1 38.28,46.84 37.3,46.84 35.08,43.73 35.08,46.84 33.77,46.84 33.77,41.1 34.76,41.1 "/>
    <polygon class="fil1" points="40.58,44.56 40.58,45.58 42.87,45.58 42.87,46.84 39.26,46.84 39.26,41.1 42.83,41.1 42.83,42.37 40.58,42.37 40.58,43.32 42.62,43.32 42.62,44.56 "/>
    <path class="fil1" d="M47.67 46.95c-0.58,0 -1.06,-0.12 -1.46,-0.37 -0.39,-0.25 -0.67,-0.59 -0.84,-1.04l1.13 -0.66c0.23,0.53 0.63,0.8 1.21,0.8 0.52,0 0.77,-0.16 0.77,-0.47 0,-0.18 -0.08,-0.31 -0.25,-0.39 -0.17,-0.11 -0.49,-0.22 -0.93,-0.34 -0.46,-0.13 -0.85,-0.31 -1.17,-0.54 -0.35,-0.28 -0.52,-0.69 -0.52,-1.21 0,-0.53 0.19,-0.95 0.56,-1.27 0.39,-0.31 0.84,-0.47 1.36,-0.47 0.47,0 0.89,0.11 1.25,0.33 0.36,0.22 0.65,0.54 0.85,0.96l-1.1 0.65c-0.21,-0.44 -0.54,-0.66 -1,-0.66 -0.19,0 -0.34,0.04 -0.45,0.12 -0.11,0.08 -0.16,0.19 -0.16,0.31 0,0.14 0.07,0.26 0.2,0.37 0.14,0.11 0.42,0.22 0.83,0.34l0.53 0.18c0.14,0.04 0.3,0.11 0.48,0.22 0.2,0.1 0.34,0.2 0.44,0.32 0.27,0.28 0.4,0.64 0.4,1.06 0,0.54 -0.2,0.98 -0.59,1.3 -0.4,0.31 -0.91,0.46 -1.54,0.46z"/>
    <path class="fil1" d="M53.15 45.68c0.1,0 0.24,-0.02 0.4,-0.05l-0.83 -0.87 0.95 -0.84 0.91 0.98c0.16,-0.29 0.24,-0.6 0.24,-0.93 0,-0.49 -0.16,-0.91 -0.48,-1.23 -0.32,-0.31 -0.72,-0.47 -1.19,-0.47 -0.48,0 -0.88,0.16 -1.2,0.47 -0.32,0.32 -0.47,0.73 -0.47,1.23 0,0.5 0.15,0.91 0.47,1.23 0.32,0.32 0.72,0.48 1.2,0.48zm2.98 -1.71c0,0.71 -0.22,1.33 -0.65,1.88l0.57 0.6 -0.94 0.84 -0.62 -0.65c-0.43,0.21 -0.88,0.31 -1.34,0.31 -0.83,0 -1.54,-0.28 -2.12,-0.86 -0.58,-0.57 -0.87,-1.28 -0.87,-2.12 0,-0.84 0.29,-1.55 0.87,-2.12 0.58,-0.57 1.29,-0.86 2.12,-0.86 0.83,0 1.53,0.29 2.11,0.86 0.58,0.57 0.87,1.28 0.87,2.12z"/>
    <path class="fil1" d="M56.83 44.99l0 -3.89 1.31 0 0 3.77c0,0.54 0.3,0.81 0.9,0.81 0.6,0 0.9,-0.27 0.9,-0.81l0 -3.77 1.31 0 0 3.89c0,0.6 -0.2,1.08 -0.62,1.43 -0.42,0.36 -0.95,0.54 -1.59,0.54 -0.64,0 -1.17,-0.18 -1.59,-0.54 -0.41,-0.35 -0.62,-0.83 -0.62,-1.43z"/>
    <path class="fil1" d="M64.33 42.6l-0.67 2.11 1.34 0 -0.67 -2.11zm2.78 4.24l-1.43 0 -0.29 -0.9 -2.13 0 -0.28 0.9 -1.44 0 1.95 -5.74 1.67 0 1.95 5.74z"/>
    <path class="fil1" d="M69.9 42.33l-0.98 0 0 1.48 0.98 0c0.18,0 0.33,-0.07 0.46,-0.22 0.13,-0.14 0.2,-0.31 0.2,-0.52 0,-0.21 -0.07,-0.38 -0.2,-0.52 -0.13,-0.15 -0.28,-0.22 -0.46,-0.22zm2.13 4.51l-1.41 0 -1.08 -1.88 -0.62 0 0 1.88 -1.31 0 0 -5.74 2.29 0c0.55,0 1.01,0.19 1.39,0.58 0.39,0.38 0.58,0.84 0.58,1.39 0,0.34 -0.1,0.67 -0.29,0.97 -0.2,0.3 -0.45,0.53 -0.77,0.69l1.22 2.11z"/>
    <polygon class="fil1" points="73.96,44.56 73.96,45.58 76.25,45.58 76.25,46.84 72.65,46.84 72.65,41.1 76.21,41.1 76.21,42.37 73.96,42.37 73.96,43.32 76.01,43.32 76.01,44.56 "/>
   </g>
  </g>
 </g>
</svg>
