<?xml version="1.0" encoding="UTF-8"?>
<!DOCTYPE svg PUBLIC "-//W3C//DTD SVG 1.1//EN" "http://www.w3.org/Graphics/SVG/1.1/DTD/svg11.dtd">
<!-- Creator: CorelDRAW 2021 (64-Bit) -->
<svg xmlns="http://www.w3.org/2000/svg" xml:space="preserve" width="211px" height="212px" version="1.1" style="shape-rendering:geometricPrecision; text-rendering:geometricPrecision; image-rendering:optimizeQuality; fill-rule:evenodd; clip-rule:evenodd"
viewBox="0 0 23.52 23.6"
 xmlns:xlink="http://www.w3.org/1999/xlink"
 xmlns:xodm="http://www.corel.com/coreldraw/odm/2003">
 <defs>
  <style type="text/css">
   <![CDATA[
    .fil0 {fill:#282829}
    .fil1 {fill:#282829;fill-rule:nonzero}
   ]]>
  </style>
 </defs>
 <g id="Layer_x0020_1">
  <metadata id="CorelCorpID_0Corel-Layer"/>
  <g id="_1931595078048">
   <path class="fil0" d="M18.74 0c0,0.03 0,0.06 0,0.09 0.04,0.74 -0.06,1.47 -0.25,2.18 -0.23,0.88 -0.57,1.72 -0.98,2.53 -0.52,1.05 -1.14,2.05 -1.82,3.01 -0.54,0.76 -1.1,1.5 -1.71,2.2 -0.03,0.04 -0.06,0.07 -0.09,0.1 -0.01,0 -0.01,-0.01 -0.02,-0.01 0.01,-0.04 0.02,-0.08 0.03,-0.12 0.36,-1.25 0.66,-2.51 0.82,-3.81 0.11,-0.91 0.15,-1.83 0.05,-2.74 -0.04,-0.35 -0.1,-0.7 -0.21,-1.04 -0.02,-0.04 -0.04,-0.09 -0.06,-0.13 0,0.21 0.02,0.41 0.04,0.61 0.1,1.13 0.06,2.25 -0.11,3.36 -0.17,1.12 -0.49,2.2 -0.95,3.23 -0.89,2.01 -2.2,3.7 -3.85,5.14 -0.5,0.44 -1.04,0.84 -1.59,1.23 -0.32,0.22 -0.61,0.47 -0.85,0.77 -0.41,0.5 -0.6,1.06 -0.48,1.71 0.11,0.56 0.44,0.93 1.01,1.06 0.38,0.08 0.75,0.06 1.13,-0.04 -0.02,-0.01 -0.05,-0.02 -0.07,-0.03 -0.13,-0.05 -0.26,-0.1 -0.37,-0.17 -0.36,-0.23 -0.51,-0.56 -0.45,-0.99 0.05,-0.32 0.19,-0.6 0.37,-0.87 0.25,-0.36 0.55,-0.67 0.87,-0.95 0.88,-0.74 1.73,-1.51 2.56,-2.3 1.19,-1.13 2.31,-2.34 3.32,-3.64 0.83,-1.07 1.58,-2.19 2.2,-3.39 0.51,-0.97 0.93,-1.97 1.22,-3.03 0.2,-0.73 0.33,-1.47 0.37,-2.23 0.03,-0.53 0.02,-1.05 -0.07,-1.57 -0.01,-0.05 -0.03,-0.11 -0.04,-0.16l-0.02 0zm1.52 4.77c-0.26,0.5 -0.51,1.01 -0.79,1.51 -0.62,1.09 -1.34,2.11 -2.15,3.08 -0.44,0.53 -0.89,1.05 -1.4,1.53 -0.28,0.27 -0.56,0.54 -0.84,0.81 -0.03,0.03 -0.05,0.06 -0.09,0.09 0.08,-0.01 0.08,-0.01 0.13,-0.04 0.83,-0.67 1.65,-1.35 2.43,-2.08 0.59,-0.55 1.15,-1.12 1.63,-1.78 0.36,-0.5 0.71,-1 0.95,-1.57 0.19,-0.46 0.29,-0.92 0.25,-1.42 -0.01,-0.08 -0.01,-0.16 -0.06,-0.25 -0.02,0.05 -0.04,0.08 -0.06,0.12zm-0.35 4.3c-0.2,0.18 -0.4,0.36 -0.61,0.53 -0.42,0.38 -0.85,0.75 -1.31,1.07 -0.2,0.14 -0.39,0.28 -0.58,0.42 -0.11,0.07 -0.21,0.15 -0.33,0.21 -0.26,0.16 -0.52,0.31 -0.78,0.46 -0.07,0.05 -0.14,0.1 -0.21,0.15 0,0.01 0,0.02 0,0.02 0.03,0 0.05,0 0.07,-0.01 0.29,-0.08 0.57,-0.18 0.84,-0.3 0.61,-0.26 1.21,-0.53 1.77,-0.89 0.31,-0.2 0.6,-0.43 0.85,-0.72 0.17,-0.2 0.3,-0.42 0.37,-0.67 0.03,-0.11 0.06,-0.22 0.04,-0.35 -0.05,0.03 -0.09,0.05 -0.12,0.08zm-0.07 2.23c-0.35,0.25 -0.72,0.46 -1.1,0.66 -0.27,0.14 -0.55,0.27 -0.84,0.38 -0.4,0.15 -0.81,0.29 -1.21,0.43 -0.05,0.02 -0.09,0.03 -0.14,0.05 0.03,0.02 0.06,0.02 0.08,0.02 0.24,-0.03 0.47,-0.06 0.71,-0.1 0.28,-0.04 0.56,-0.08 0.82,-0.17 0.22,-0.07 0.44,-0.13 0.64,-0.21 0.37,-0.16 0.68,-0.4 0.96,-0.68 0.11,-0.11 0.16,-0.24 0.21,-0.38 0.01,-0.02 0,-0.04 0,-0.09 -0.05,0.04 -0.09,0.06 -0.13,0.09zm-0.36 1.6c-0.18,0.08 -0.34,0.18 -0.52,0.25 -0.64,0.24 -1.31,0.39 -1.97,0.57 -0.03,0.01 -0.07,0.03 -0.11,0.04 0,0.01 0,0.02 0,0.03 0.07,0 0.14,0.01 0.2,0.01 0.48,0 0.96,-0.04 1.43,-0.14 0.3,-0.07 0.59,-0.17 0.83,-0.37 0.09,-0.07 0.17,-0.16 0.25,-0.25 0.05,-0.05 0.08,-0.12 0.08,-0.23 -0.07,0.04 -0.13,0.06 -0.19,0.09zm-7.09 0.78c-0.61,0.61 -1.24,1.19 -1.88,1.76 -0.06,0.05 -0.08,0.11 -0.08,0.18 0,0.51 0,1.02 0,1.54 0,0.09 0,0.18 -0.01,0.27 -0.03,0.27 -0.12,0.51 -0.37,0.67 -0.23,0.13 -0.47,0.16 -0.73,0.12 -0.4,-0.07 -0.65,-0.32 -0.71,-0.72 -0.02,-0.08 -0.03,-0.15 -0.04,-0.23 -0.01,0 -0.02,0 -0.02,0.01 -0.19,0.23 -0.34,0.48 -0.41,0.77 -0.06,0.22 -0.03,0.42 0.11,0.59 0.09,0.11 0.19,0.21 0.3,0.29 0.18,0.15 0.39,0.24 0.61,0.31 0.14,0.05 0.27,0.09 0.44,0.14 -0.67,0.17 -1.31,0.34 -1.98,0.18 0.03,0.02 0.05,0.05 0.09,0.06 0.17,0.08 0.34,0.17 0.53,0.23 0.28,0.09 0.57,0.13 0.86,0.16 0.53,0.03 1.05,0 1.56,-0.14 0.82,-0.22 1.38,-0.72 1.65,-1.53 0.13,-0.38 0.17,-0.78 0.17,-1.18 0,-1.14 0,-2.28 0,-3.42 0,-0.04 0,-0.07 -0.01,-0.12 -0.03,0.03 -0.06,0.04 -0.08,0.06zm-10.18 0.22c-0.85,0.28 -1.5,0.8 -1.9,1.61 -0.26,0.52 -0.34,1.08 -0.3,1.66 0.04,0.57 0.23,1.09 0.58,1.56 0.49,0.65 1.16,1.03 1.95,1.21 0.52,0.11 1.04,0.11 1.57,0.03 0.69,-0.1 1.3,-0.37 1.86,-0.78 0.05,-0.05 0.08,-0.09 0.08,-0.16 -0.01,-0.86 0,-1.73 -0.01,-2.59 0,-0.03 0,-0.06 -0.01,-0.09 -0.21,-0.03 -2.81,-0.02 -2.9,0.01l0 1.26c0.05,0 0.1,0 0.14,0.01 0.11,0 0.21,0 0.31,0 0.15,0 0.3,0 0.44,0 0.04,0 0.09,0 0.14,0l0 0.4c0,0.22 -0.01,0.23 -0.23,0.29 -0.01,0 -0.03,0 -0.05,0.01 -0.21,0.04 -0.42,0.05 -0.63,0.02 -0.45,-0.06 -0.8,-0.26 -1.02,-0.66 -0.25,-0.45 -0.26,-0.93 -0.08,-1.4 0.15,-0.36 0.42,-0.6 0.79,-0.73 0.26,-0.09 0.53,-0.09 0.8,-0.04 0.32,0.06 0.61,0.21 0.87,0.41 0.03,0.02 0.07,0.05 0.11,0.08 0.38,-0.46 0.74,-0.9 1.12,-1.36 -0.04,-0.03 -0.07,-0.06 -0.1,-0.09 -0.19,-0.12 -0.37,-0.26 -0.57,-0.38 -0.48,-0.26 -1,-0.4 -1.55,-0.43 -0.1,-0.01 -0.2,-0.01 -0.3,-0.01 -0.37,0 -0.74,0.04 -1.11,0.16zm16.29 -0.01c-0.02,0.16 -0.02,5.91 0.01,6 0.12,0.02 1.89,0.01 1.99,-0.01 0,-0.32 0,-0.64 0,-0.97 0,-0.32 0,-0.65 0,-0.99l2.8 0c0.03,-0.16 0.02,-1.47 -0.01,-1.56l-0.39 0 -0.4 0 -0.4 0 -0.4 0 -0.39 0c-0.14,0 -0.27,0 -0.41,0 -0.13,0 -0.26,-0.01 -0.39,-0.01l0 -0.76 3.01 0 0 -1.71c-0.06,-0.01 -1.12,-0.01 -2.25,-0.01 -1.32,0 -2.72,0 -2.77,0.02zm-5.27 -0.01c0,0 -0.01,0 -0.01,0 0,0 0,0.01 -0.01,0.02 0,0.01 0,0.03 0,0.05 0,1.96 0,3.92 0,5.88 0,0.02 0,0.03 0,0.04 0,0 0.01,0.01 0.01,0.01 0,0 0.01,0.01 0.01,0.01l4.81 0 0 -1.71 -0.7 0 -0.7 0c-0.24,0 -0.48,0 -0.72,0 -0.07,0 -0.15,0 -0.22,0 -0.16,0 -0.32,0 -0.48,-0.01l0 -4.28c-0.03,-0.01 -0.04,-0.02 -0.05,-0.02 -0.6,0 -1.2,0 -1.8,0 -0.05,0 -0.09,0 -0.14,0.01zm-6.69 0l0 3.48c0,0 0.01,0 0.02,0 0.01,-0.02 0.02,-0.04 0.02,-0.06 0.07,-0.22 0.17,-0.41 0.29,-0.6 0.23,-0.34 0.53,-0.63 0.85,-0.88 0.25,-0.19 0.51,-0.37 0.77,-0.55 0.06,-0.05 0.09,-0.1 0.09,-0.18 -0.01,-0.37 0,-0.74 0,-1.11 0,-0.04 -0.01,-0.07 -0.01,-0.1l-2.03 0z"/>
   <path class="fil1" d="M4.35 23.55l0 -2.45 0.5 0 0 0.96 0.97 0 0 -0.96 0.49 0 0 2.45 -0.49 0 0 -1.07 -0.97 0 0 1.07 -0.5 0zm2.48 0l0 -2.45 1.81 0 0 0.41 -1.31 0 0 0.55 1.22 0 0 0.41 -1.22 0 0 0.67 1.36 0 0 0.41 -1.86 0zm2.27 0l0 -2.45 0.49 0 0 2.45 -0.49 0zm2.11 -0.9l0 -0.42 1.06 0 0 0.98c-0.1,0.1 -0.25,0.19 -0.45,0.27 -0.19,0.08 -0.39,0.12 -0.59,0.12 -0.26,0 -0.48,-0.06 -0.68,-0.17 -0.19,-0.1 -0.33,-0.26 -0.42,-0.46 -0.1,-0.2 -0.15,-0.42 -0.15,-0.65 0,-0.26 0.05,-0.49 0.16,-0.69 0.11,-0.2 0.27,-0.35 0.47,-0.46 0.16,-0.08 0.35,-0.12 0.59,-0.12 0.3,0 0.54,0.07 0.71,0.19 0.17,0.13 0.28,0.31 0.33,0.54l-0.49 0.09c-0.03,-0.12 -0.1,-0.22 -0.19,-0.29 -0.1,-0.07 -0.22,-0.1 -0.36,-0.1 -0.22,0 -0.39,0.07 -0.52,0.2 -0.12,0.14 -0.19,0.34 -0.19,0.62 0,0.29 0.07,0.51 0.2,0.65 0.13,0.15 0.29,0.22 0.5,0.22 0.11,0 0.21,-0.02 0.32,-0.06 0.1,-0.04 0.19,-0.09 0.26,-0.15l0 -0.31 -0.56 0zm1.52 0.9l0 -2.45 0.5 0 0 0.96 0.97 0 0 -0.96 0.49 0 0 2.45 -0.49 0 0 -1.07 -0.97 0 0 1.07 -0.5 0zm3.03 0l0 -2.04 -0.73 0 0 -0.41 1.95 0 0 0.41 -0.72 0 0 2.04 -0.5 0zm1.41 -0.79l0.48 -0.05c0.03,0.16 0.09,0.28 0.18,0.35 0.09,0.08 0.21,0.12 0.36,0.12 0.16,0 0.28,-0.04 0.36,-0.1 0.08,-0.07 0.12,-0.15 0.12,-0.24 0,-0.06 -0.02,-0.11 -0.05,-0.15 -0.04,-0.04 -0.09,-0.07 -0.18,-0.1 -0.06,-0.03 -0.19,-0.06 -0.39,-0.11 -0.27,-0.07 -0.45,-0.15 -0.56,-0.25 -0.15,-0.13 -0.23,-0.3 -0.23,-0.49 0,-0.13 0.04,-0.24 0.11,-0.35 0.07,-0.11 0.17,-0.2 0.31,-0.25 0.13,-0.06 0.29,-0.09 0.48,-0.09 0.3,0 0.54,0.07 0.69,0.21 0.16,0.13 0.24,0.31 0.24,0.54l-0.49 0.02c-0.02,-0.13 -0.07,-0.22 -0.14,-0.27 -0.07,-0.06 -0.17,-0.09 -0.31,-0.09 -0.14,0 -0.25,0.03 -0.33,0.09 -0.06,0.04 -0.08,0.09 -0.08,0.16 0,0.05 0.02,0.1 0.07,0.14 0.06,0.06 0.21,0.11 0.46,0.17 0.24,0.06 0.41,0.12 0.53,0.18 0.11,0.06 0.2,0.14 0.27,0.25 0.06,0.1 0.1,0.23 0.1,0.39 0,0.14 -0.04,0.27 -0.12,0.39 -0.08,0.12 -0.19,0.22 -0.33,0.28 -0.14,0.06 -0.32,0.09 -0.54,0.09 -0.31,0 -0.54,-0.08 -0.71,-0.22 -0.17,-0.14 -0.27,-0.35 -0.3,-0.62z"/>
  </g>
 </g>
</svg>
