<?xml version="1.0" encoding="UTF-8"?>
<!DOCTYPE svg PUBLIC "-//W3C//DTD SVG 1.1//EN" "http://www.w3.org/Graphics/SVG/1.1/DTD/svg11.dtd">
<!-- Creator: CorelDRAW 2021 (64-Bit) -->
<svg xmlns="http://www.w3.org/2000/svg" xml:space="preserve" width="210px" height="131px" version="1.1" style="shape-rendering:geometricPrecision; text-rendering:geometricPrecision; image-rendering:optimizeQuality; fill-rule:evenodd; clip-rule:evenodd"
viewBox="0 0 31.3 19.54"
 xmlns:xlink="http://www.w3.org/1999/xlink"
 xmlns:xodm="http://www.corel.com/coreldraw/odm/2003">
 <defs>
  <style type="text/css">
   <![CDATA[
    .fil0 {fill:#282829;fill-rule:nonzero}
   ]]>
  </style>
 </defs>
 <g id="Layer_x0020_1">
  <metadata id="CorelCorpID_0Corel-Layer"/>
  <path class="fil0" d="M3.79 12.76c2.63,0 3.68,-1.15 3.68,-4.44l0 -2.36 -3.46 0 0 1.76 1.52 0 0 0.62c0,1.91 -0.27,2.56 -1.76,2.56 -1.46,0 -1.66,-0.84 -1.66,-2.56l0 -3.92c0,-1.76 0.24,-2.58 1.68,-2.58 1.37,0 1.52,0.55 1.66,2.15l1.97 -0.19c-0.18,-2.74 -1.02,-3.8 -3.63,-3.8 -2.63,0 -3.69,1.26 -3.69,4.2l0 4.34c0,2.93 1.04,4.22 3.69,4.22zm8.62 0c2.58,0 3.62,-1.29 3.62,-4.22l0 -8.44 -1.99 0 0 8.24c0,1.74 -0.22,2.56 -1.64,2.56 -1.43,0 -1.61,-0.82 -1.61,-2.56l0 -8.24 -2.01 0 0 8.44c0,2.93 1.02,4.22 3.63,4.22zm5.45 -0.1l6.06 0 -0.25 -1.86 -3.8 0 0 -10.7 -2.01 0 0 12.56zm7.28 0l2.01 0 0 -5.61 3.01 0 0 -1.91 -3.01 0 0 -3.18 3.8 0 0.25 -1.86 -6.06 0 0 12.56z"/>
  <path class="fil0" d="M0 19.5l0.64 0 0 -4.02 0.01 0 1.03 4.02 0.66 0 1 -4.02 0.01 0 0 4.02 0.67 0 0 -5.31 -0.95 0 -1.05 4.11 -0.01 0 -1.05 -4.11 -0.96 0 0 5.31zm5.89 0l0.68 0 0.26 -1.27 1.16 0 0.27 1.27 0.68 0 -1.13 -5.31 -0.78 0 -1.14 5.31zm1.05 -1.89l0.46 -2.29 0.01 0 0.47 2.29 -0.94 0zm3.88 1.89l0.64 0 0 -3.83 0.01 0 1.6 3.83 0.65 0 0 -5.31 -0.65 0 0 3.69 -0.01 0 -1.5 -3.69 -0.74 0 0 5.31zm6.26 0.04c1.13,0 1.45,-0.59 1.45,-1.44 0,-1.74 -2.14,-1.5 -2.14,-2.64 0,-0.43 0.13,-0.69 0.69,-0.69 0.57,0 0.65,0.25 0.72,0.93l0.66 -0.07c-0.07,-1 -0.29,-1.48 -1.36,-1.48 -1.04,0 -1.38,0.55 -1.38,1.34 0,1.67 2.14,1.38 2.14,2.63 0,0.5 -0.13,0.79 -0.78,0.79 -0.58,0 -0.73,-0.25 -0.78,-0.96l-0.69 0.08c0.08,0.94 0.34,1.51 1.47,1.51zm3.46 -0.04l0.69 0 0 -5.31 -0.69 0 0 5.31zm4.29 0.04c1.06,0 1.5,-0.53 1.5,-1.77l0 -1.86c0,-1.25 -0.44,-1.76 -1.5,-1.76 -1.05,0 -1.49,0.51 -1.49,1.76l0 1.86c0,1.24 0.43,1.77 1.49,1.77zm0 -0.64c-0.66,0 -0.8,-0.37 -0.8,-1.19l0 -1.74c0,-0.83 0.14,-1.19 0.8,-1.19 0.66,0 0.81,0.36 0.81,1.19l0 1.74c0,0.82 -0.15,1.19 -0.81,1.19zm3.57 0.6l0.65 0 0 -3.83 0 0 1.6 3.83 0.65 0 0 -5.31 -0.65 0 0 3.69 0 0 -1.5 -3.69 -0.75 0 0 5.31z"/>
 </g>
</svg>
