<?xml version="1.0" encoding="UTF-8"?>
<!DOCTYPE svg PUBLIC "-//W3C//DTD SVG 1.1//EN" "http://www.w3.org/Graphics/SVG/1.1/DTD/svg11.dtd">
<!-- Creator: CorelDRAW 2021 (64-Bit) -->
<svg xmlns="http://www.w3.org/2000/svg" xml:space="preserve" width="211px" height="212px" version="1.1" style="shape-rendering:geometricPrecision; text-rendering:geometricPrecision; image-rendering:optimizeQuality; fill-rule:evenodd; clip-rule:evenodd"
viewBox="0 0 69.41 69.62"
 xmlns:xlink="http://www.w3.org/1999/xlink"
 xmlns:xodm="http://www.corel.com/coreldraw/odm/2003">
 <defs>
  <style type="text/css">
   <![CDATA[
    .fil0 {fill:#282829}
    .fil1 {fill:#282829;fill-rule:nonzero}
   ]]>
  </style>
 </defs>
 <g id="Layer_x0020_1">
  <metadata id="CorelCorpID_0Corel-Layer"/>
  <path class="fil0" d="M55.29 0.01c0,0.09 0,0.17 0,0.25 0.14,2.19 -0.17,4.34 -0.72,6.45 -0.68,2.6 -1.7,5.06 -2.89,7.45 -1.56,3.11 -3.38,6.06 -5.38,8.9 -1.58,2.24 -3.26,4.41 -5.05,6.49 -0.09,0.09 -0.17,0.19 -0.26,0.28 -0.02,-0.01 -0.04,-0.02 -0.07,-0.03 0.03,-0.12 0.06,-0.23 0.09,-0.34 1.08,-3.69 1.96,-7.43 2.42,-11.25 0.33,-2.69 0.46,-5.39 0.16,-8.1 -0.12,-1.03 -0.31,-2.05 -0.63,-3.04 -0.05,-0.14 -0.11,-0.27 -0.16,-0.41 -0.01,0.62 0.05,1.22 0.11,1.82 0.3,3.32 0.18,6.62 -0.33,9.9 -0.52,3.3 -1.45,6.48 -2.8,9.53 -2.62,5.93 -6.5,10.92 -11.36,15.17 -1.49,1.31 -3.08,2.49 -4.71,3.62 -0.94,0.65 -1.78,1.41 -2.51,2.3 -1.19,1.47 -1.77,3.11 -1.4,5.02 0.33,1.67 1.28,2.74 2.97,3.13 1.12,0.26 2.23,0.18 3.35,-0.1 -0.08,-0.03 -0.15,-0.06 -0.23,-0.09 -0.36,-0.17 -0.74,-0.3 -1.07,-0.51 -1.07,-0.68 -1.5,-1.67 -1.32,-2.92 0.14,-0.95 0.56,-1.79 1.09,-2.58 0.72,-1.05 1.6,-1.97 2.57,-2.79 2.58,-2.19 5.1,-4.45 7.55,-6.78 3.51,-3.35 6.8,-6.91 9.77,-10.75 2.45,-3.16 4.67,-6.47 6.52,-10.01 1.49,-2.86 2.72,-5.82 3.58,-8.93 0.59,-2.16 0.99,-4.36 1.11,-6.6 0.09,-1.54 0.04,-3.09 -0.23,-4.62 -0.02,-0.16 -0.06,-0.31 -0.1,-0.47l-0.07 0.01zm4.5 14.06c-0.78,1.49 -1.51,3 -2.34,4.46 -1.82,3.23 -3.96,6.24 -6.33,9.09 -1.31,1.57 -2.65,3.11 -4.13,4.52 -0.83,0.79 -1.66,1.59 -2.49,2.38 -0.08,0.08 -0.16,0.17 -0.26,0.27 0.24,-0.02 0.24,-0.02 0.38,-0.13 2.45,-1.96 4.87,-3.97 7.16,-6.12 1.74,-1.63 3.41,-3.33 4.82,-5.26 1.07,-1.47 2.09,-2.96 2.8,-4.64 0.55,-1.34 0.86,-2.72 0.74,-4.17 -0.02,-0.24 -0.03,-0.49 -0.17,-0.76 -0.07,0.15 -0.13,0.25 -0.18,0.36zm-1.04 12.68c-0.6,0.53 -1.19,1.07 -1.79,1.59 -1.26,1.1 -2.51,2.2 -3.89,3.15 -0.57,0.39 -1.13,0.82 -1.7,1.23 -0.31,0.22 -0.63,0.44 -0.96,0.64 -0.77,0.45 -1.54,0.9 -2.31,1.35 -0.22,0.13 -0.42,0.28 -0.63,0.43 0.01,0.02 0.01,0.05 0.01,0.07 0.07,-0.01 0.14,-0.02 0.21,-0.04 0.85,-0.24 1.67,-0.54 2.49,-0.88 1.79,-0.76 3.56,-1.55 5.2,-2.62 0.92,-0.61 1.79,-1.28 2.51,-2.13 0.49,-0.59 0.89,-1.23 1.1,-1.98 0.09,-0.32 0.18,-0.64 0.1,-1.04 -0.14,0.09 -0.25,0.15 -0.34,0.23zm-0.2 6.59c-1.03,0.74 -2.14,1.35 -3.26,1.95 -0.8,0.43 -1.63,0.79 -2.47,1.12 -1.18,0.46 -2.39,0.85 -3.58,1.28 -0.13,0.04 -0.26,0.09 -0.39,0.14 0.09,0.06 0.16,0.06 0.22,0.05 0.7,-0.09 1.39,-0.18 2.09,-0.28 0.82,-0.13 1.65,-0.24 2.44,-0.51 0.63,-0.21 1.28,-0.37 1.88,-0.63 1.09,-0.45 2,-1.16 2.83,-1.99 0.32,-0.32 0.48,-0.72 0.63,-1.12 0.02,-0.06 0,-0.14 0,-0.27 -0.16,0.1 -0.28,0.17 -0.39,0.26zm-1.08 4.73c-0.51,0.24 -1,0.52 -1.53,0.72 -1.89,0.71 -3.85,1.18 -5.79,1.71 -0.12,0.03 -0.23,0.07 -0.34,0.1 0,0.03 0,0.05 0,0.08 0.2,0.02 0.4,0.05 0.6,0.05 1.41,0 2.81,-0.13 4.2,-0.44 0.9,-0.2 1.74,-0.5 2.46,-1.07 0.27,-0.21 0.51,-0.47 0.74,-0.74 0.14,-0.16 0.23,-0.36 0.24,-0.67 -0.23,0.1 -0.41,0.17 -0.58,0.26zm-20.9 2.3c-1.8,1.79 -3.67,3.5 -5.57,5.19 -0.17,0.15 -0.22,0.31 -0.22,0.54 0,1.51 0,3.02 0,4.53 0,0.26 0,0.53 -0.03,0.79 -0.09,0.82 -0.36,1.53 -1.11,1.97 -0.66,0.4 -1.38,0.5 -2.13,0.37 -1.18,-0.2 -1.92,-0.95 -2.11,-2.13 -0.04,-0.22 -0.07,-0.44 -0.1,-0.66 -0.04,0 -0.07,0 -0.08,0.02 -0.54,0.68 -1.01,1.42 -1.21,2.28 -0.16,0.63 -0.07,1.24 0.35,1.75 0.26,0.31 0.55,0.6 0.88,0.85 0.53,0.42 1.15,0.69 1.8,0.91 0.39,0.14 0.8,0.25 1.29,0.4 -1.97,0.49 -3.86,1.02 -5.85,0.55 0.09,0.05 0.16,0.13 0.26,0.17 0.52,0.23 1.03,0.48 1.56,0.66 0.83,0.28 1.69,0.41 2.56,0.47 1.56,0.12 3.09,0.02 4.6,-0.39 2.42,-0.65 4.07,-2.14 4.87,-4.53 0.39,-1.12 0.5,-2.29 0.5,-3.46 0.01,-3.37 0,-6.74 0,-10.11 0,-0.11 -0.01,-0.21 -0.03,-0.36 -0.11,0.09 -0.18,0.13 -0.23,0.19zm-30.04 0.65c-2.52,0.81 -4.44,2.35 -5.62,4.75 -0.76,1.54 -1.01,3.19 -0.88,4.9 0.13,1.69 0.69,3.22 1.71,4.59 1.44,1.94 3.41,3.06 5.74,3.58 1.54,0.34 3.1,0.33 4.65,0.1 2.03,-0.31 3.85,-1.1 5.48,-2.33 0.16,-0.12 0.23,-0.24 0.23,-0.45 0,-2.55 0,-5.1 0,-7.65 0,-0.09 -0.02,-0.18 -0.03,-0.27 -0.65,-0.08 -8.32,-0.04 -8.57,0.04l0 3.71c0.15,0.01 0.28,0.02 0.41,0.02 0.31,0 0.62,0 0.93,0 0.43,0 0.86,0 1.29,0 0.12,0 0.25,0.02 0.39,0.03l0 1.16c0,0.66 -0.01,0.68 -0.65,0.85 -0.05,0.02 -0.1,0.02 -0.15,0.03 -0.62,0.13 -1.25,0.14 -1.87,0.07 -1.32,-0.17 -2.36,-0.78 -3.02,-1.96 -0.73,-1.33 -0.77,-2.72 -0.21,-4.12 0.42,-1.07 1.22,-1.78 2.3,-2.16 0.78,-0.27 1.57,-0.27 2.37,-0.12 0.96,0.18 1.79,0.63 2.57,1.21 0.1,0.07 0.2,0.15 0.33,0.24 1.11,-1.34 2.19,-2.65 3.31,-4 -0.12,-0.11 -0.2,-0.2 -0.3,-0.26 -0.56,-0.38 -1.1,-0.8 -1.69,-1.13 -1.41,-0.79 -2.94,-1.19 -4.56,-1.28 -0.3,-0.02 -0.59,-0.03 -0.88,-0.03 -1.11,0 -2.21,0.13 -3.28,0.48zm48.05 -0.04c-0.06,0.48 -0.04,17.44 0.03,17.7 0.36,0.07 5.57,0.05 5.89,-0.03 0,-0.94 -0.01,-1.89 0,-2.84 0,-0.96 -0.01,-1.92 0,-2.92l8.26 0c0.07,-0.5 0.05,-4.34 -0.03,-4.62l-1.15 0 -1.19 0 -1.16 0 -1.2 0 -1.16 0c-0.4,0 -0.8,0 -1.2,0 -0.38,-0.01 -0.76,-0.01 -1.15,-0.02l0 -2.24 8.89 0 0 -5.04c-0.18,-0.04 -3.32,-0.05 -6.66,-0.05 -3.87,0 -8.02,0.02 -8.17,0.06zm-15.54 -0.03c-0.01,0 -0.02,0.01 -0.03,0.01 0,0.01 -0.01,0.02 -0.03,0.05 -0.01,0.04 -0.01,0.1 -0.01,0.16 0,5.78 0,11.57 0,17.36 0,0.03 0.01,0.07 0.02,0.1 0,0.02 0.01,0.02 0.02,0.03 0.01,0.01 0.01,0.02 0.03,0.04l14.19 0 0 -5.07 -2.07 0 -2.07 0c-0.7,0 -1.4,0.01 -2.1,0 -0.22,0 -0.44,0 -0.66,0.01 -0.47,0 -0.94,0 -1.43,-0.02l0 -12.64c-0.06,-0.03 -0.1,-0.05 -0.13,-0.05 -1.78,-0.01 -3.55,-0.01 -5.33,-0.01 -0.13,0 -0.26,0.02 -0.4,0.03zm-19.76 0l0 10.26c0.03,0.01 0.05,0.01 0.07,0.02 0.03,-0.07 0.06,-0.13 0.08,-0.19 0.2,-0.63 0.49,-1.21 0.86,-1.75 0.67,-1.02 1.53,-1.87 2.5,-2.61 0.73,-0.56 1.5,-1.1 2.25,-1.64 0.19,-0.13 0.28,-0.26 0.27,-0.5 -0.01,-1.1 0,-2.2 0,-3.3 0,-0.09 -0.02,-0.19 -0.03,-0.29l-6 0z"/>
  <path class="fil1" d="M19.64 69.49l0 -7.24 1.47 0 0 7.24 -1.47 0zm7.49 -2.67l1.42 0.44c-0.22,0.8 -0.58,1.39 -1.09,1.77 -0.5,0.39 -1.14,0.58 -1.92,0.58 -0.96,0 -1.75,-0.32 -2.37,-0.98 -0.62,-0.66 -0.93,-1.56 -0.93,-2.7 0,-1.2 0.31,-2.14 0.93,-2.81 0.63,-0.67 1.44,-1 2.46,-1 0.89,0 1.61,0.26 2.16,0.79 0.33,0.31 0.58,0.75 0.74,1.33l-1.45 0.35c-0.08,-0.38 -0.26,-0.67 -0.53,-0.89 -0.28,-0.22 -0.61,-0.33 -0.99,-0.33 -0.54,0 -0.98,0.2 -1.31,0.58 -0.34,0.39 -0.5,1.01 -0.5,1.87 0,0.92 0.16,1.57 0.49,1.96 0.33,0.39 0.76,0.58 1.29,0.58 0.39,0 0.72,-0.12 1,-0.37 0.28,-0.25 0.48,-0.64 0.6,-1.17zm2.37 -0.9c0,-0.74 0.11,-1.36 0.34,-1.87 0.16,-0.36 0.38,-0.7 0.67,-0.99 0.28,-0.29 0.6,-0.51 0.93,-0.65 0.46,-0.19 0.98,-0.29 1.57,-0.29 1.07,0 1.92,0.33 2.56,0.99 0.64,0.67 0.96,1.59 0.96,2.77 0,1.17 -0.32,2.09 -0.95,2.75 -0.64,0.66 -1.49,0.99 -2.55,0.99 -1.08,0 -1.94,-0.32 -2.57,-0.98 -0.64,-0.66 -0.96,-1.57 -0.96,-2.72zm1.51 -0.05c0,0.82 0.19,1.44 0.57,1.86 0.38,0.43 0.86,0.64 1.44,0.64 0.59,0 1.07,-0.21 1.44,-0.63 0.38,-0.42 0.57,-1.05 0.57,-1.89 0,-0.83 -0.19,-1.45 -0.55,-1.86 -0.37,-0.41 -0.85,-0.62 -1.46,-0.62 -0.6,0 -1.09,0.21 -1.46,0.62 -0.36,0.42 -0.55,1.04 -0.55,1.88zm6.66 3.62l0 -7.24 1.42 0 2.98 4.85 0 -4.85 1.36 0 0 7.24 -1.47 0 -2.93 -4.76 0 4.76 -1.36 0zm7.14 -1.93l0 -1.38 2.73 0 0 1.38 -2.73 0zm3.48 1.93l0 -7.24 1.47 0 0 7.24 -1.47 0z"/>
 </g>
</svg>
