<?xml version="1.0" encoding="UTF-8"?>
<!DOCTYPE svg PUBLIC "-//W3C//DTD SVG 1.1//EN" "http://www.w3.org/Graphics/SVG/1.1/DTD/svg11.dtd">
<!-- Creator: CorelDRAW 2021 (64-Bit) -->
<svg xmlns="http://www.w3.org/2000/svg" xml:space="preserve" width="238px" height="217px" version="1.1" style="shape-rendering:geometricPrecision; text-rendering:geometricPrecision; image-rendering:optimizeQuality; fill-rule:evenodd; clip-rule:evenodd"
viewBox="0 0 319.23 291.46"
 xmlns:xlink="http://www.w3.org/1999/xlink"
 xmlns:xodm="http://www.corel.com/coreldraw/odm/2003">
 <defs>
  <style type="text/css">
   <![CDATA[
    .fil0 {fill:#282829}
   ]]>
  </style>
 </defs>
 <g id="Layer_x0020_1">
  <metadata id="CorelCorpID_0Corel-Layer"/>
  <path class="fil0" d="M138.75 37.72l0 1.58 34.4 39.23 0 95.66c3.93,-1.34 7.67,-3.07 11.19,-5.13l0 -84.14 -18.45 -21.06 0 -28.28 37.05 42.25 0 74.45c0.68,-0.93 1.33,-1.88 1.96,-2.85l0 -111.71 -33.07 -37.72 -33.08 37.72zm-31.05 0l0 119.4c3.88,4.29 8.33,8.03 13.27,11.09l0 -123.98 18.49 -21.09 0 -21.63 -31.76 36.21zm31.05 137.96c4.68,1.14 9.56,1.77 14.59,1.77 0.27,0 0.53,-0.01 0.8,-0.01l0 -92.32 -15.39 -17.55 0 108.11zm80.36 -100.03c9.95,13.52 15.21,29.55 15.21,46.35 0,43.15 -35.1,78.26 -78.26,78.26 -43.15,0 -78.25,-35.11 -78.25,-78.26 0,-16.8 5.26,-32.83 15.2,-46.35l-2.13 -1.56c-10.28,13.97 -15.72,30.53 -15.72,47.91 0,44.61 36.29,80.91 80.9,80.91 44.62,0 80.91,-36.3 80.91,-80.91 0,-17.38 -5.44,-33.94 -15.72,-47.91l-2.14 1.56zm-35.13 145.56c-2.47,1.04 -4.62,2.47 -6.44,4.29 -1.81,1.82 -3.25,3.97 -4.32,6.44 -1.05,2.47 -1.58,5.13 -1.58,7.99 0,2.83 0.54,5.48 1.61,7.95 1.08,2.47 2.55,4.62 4.4,6.44 1.86,1.82 4.02,3.24 6.49,4.28 2.47,1.05 5.1,1.57 7.89,1.57 1.91,0 3.79,-0.35 5.64,-1.03 1.86,-0.69 3.65,-1.66 5.38,-2.89 1.73,-1.24 3.34,-2.73 4.82,-4.48 1.49,-1.75 2.81,-3.68 3.97,-5.79l-3.97 2.27 -3.29 -0.63c-1.58,2.11 -3.44,3.83 -5.56,5.13 -2.11,1.31 -4.46,1.96 -7.04,1.96 -1.98,0 -3.85,-0.39 -5.62,-1.19 -1.76,-0.79 -3.32,-1.87 -4.66,-3.23 -1.34,-1.36 -2.4,-2.92 -3.18,-4.69 -0.77,-1.76 -1.16,-3.63 -1.16,-5.61 0,-1.98 0.38,-3.87 1.14,-5.67 0.76,-1.8 1.8,-3.38 3.12,-4.74 1.33,-1.36 2.87,-2.44 4.64,-3.26 1.76,-0.81 3.65,-1.22 5.67,-1.22 2.43,0 4.76,0.61 6.99,1.83 2.22,1.22 4.08,2.92 5.56,5.11l5.51 -2.06c-1.24,-1.45 -2.54,-2.8 -3.89,-4.06 -1.36,-1.25 -2.79,-2.34 -4.27,-3.28 -1.48,-0.94 -3.04,-1.67 -4.69,-2.2 -1.64,-0.53 -3.36,-0.8 -5.16,-0.8 -2.86,0 -5.53,0.53 -8,1.57zm-92.86 0c-2.47,1.04 -4.61,2.47 -6.43,4.29 -1.82,1.82 -3.26,3.97 -4.32,6.44 -1.06,2.47 -1.59,5.13 -1.59,7.99 0,2.83 0.54,5.48 1.62,7.95 1.07,2.47 2.54,4.62 4.39,6.44 1.86,1.82 4.02,3.24 6.49,4.28 2.47,1.05 5.1,1.57 7.89,1.57 1.91,0 3.79,-0.35 5.64,-1.03 1.86,-0.69 3.65,-1.66 5.38,-2.89 1.73,-1.24 3.34,-2.73 4.82,-4.48 1.49,-1.75 2.81,-3.68 3.98,-5.79l-3.98 2.27 -3.28 -0.63c-1.59,2.11 -3.44,3.83 -5.56,5.13 -2.12,1.31 -4.47,1.96 -7.05,1.96 -1.98,0 -3.85,-0.39 -5.61,-1.19 -1.77,-0.79 -3.32,-1.87 -4.67,-3.23 -1.34,-1.36 -2.39,-2.92 -3.17,-4.69 -0.78,-1.76 -1.17,-3.63 -1.17,-5.61 0,-1.98 0.38,-3.87 1.14,-5.67 0.76,-1.8 1.8,-3.38 3.13,-4.74 1.32,-1.36 2.87,-2.44 4.63,-3.26 1.77,-0.81 3.66,-1.22 5.67,-1.22 2.44,0 4.77,0.61 6.99,1.83 2.23,1.22 4.08,2.92 5.56,5.11l5.51 -2.06c-1.24,-1.45 -2.53,-2.8 -3.89,-4.06 -1.36,-1.25 -2.78,-2.34 -4.27,-3.28 -1.48,-0.94 -3.04,-1.67 -4.68,-2.2 -1.65,-0.53 -3.37,-0.8 -5.17,-0.8 -2.86,0 -5.53,0.53 -8,1.57zm160.77 -0.93l-16.79 39.2 5.98 0c2.23,-5.23 4.46,-10.5 6.7,-15.84 2.25,-5.33 4.48,-10.63 6.7,-15.89l7.79 18.65 5.67 13.08 6.2 0 -16.85 -39.2 -5.4 0zm-30.67 39.2l5.72 0 0 -39.2 -5.72 0 0 39.2zm-79.46 -39.2l-16.79 39.2 5.99 0c2.22,-5.23 4.45,-10.5 6.7,-15.84 2.24,-5.33 4.47,-10.63 6.7,-15.89l7.78 18.65 5.67 13.08 6.2 0 -16.84 -39.2 -5.41 0zm-92.86 0l-16.79 39.2 5.99 0c2.22,-5.23 4.46,-10.5 6.7,-15.84 2.24,-5.33 4.48,-10.63 6.7,-15.89l7.79 18.65 5.67 13.08 6.19 0 -16.84 -39.2 -5.41 0zm131.68 47.14c-0.84,0.33 -1.58,0.78 -2.2,1.37 -0.63,0.58 -1.12,1.28 -1.5,2.1 -0.37,0.81 -0.55,1.71 -0.55,2.69 0,1.08 0.16,1.97 0.49,2.69 0.33,0.71 0.78,1.3 1.35,1.78 0.58,0.48 1.24,0.87 1.99,1.16 0.75,0.3 1.54,0.57 2.37,0.83 0.54,0.17 1.08,0.36 1.63,0.59 0.55,0.22 1.04,0.49 1.46,0.81 0.43,0.32 0.77,0.7 1.05,1.16 0.28,0.46 0.41,1 0.41,1.64 0,0.53 -0.09,1.03 -0.3,1.49 -0.2,0.47 -0.47,0.88 -0.82,1.22 -0.36,0.34 -0.76,0.6 -1.23,0.79 -0.47,0.19 -0.97,0.29 -1.5,0.29 -1.23,0 -2.2,-0.42 -2.91,-1.26 -0.71,-0.84 -1.1,-1.96 -1.16,-3.36l-3.44 0c0.02,1.19 0.22,2.27 0.59,3.23 0.37,0.97 0.89,1.79 1.55,2.48 0.65,0.7 1.44,1.23 2.35,1.61 0.91,0.39 1.92,0.57 3.02,0.57 1.02,0 1.97,-0.18 2.85,-0.55 0.88,-0.37 1.66,-0.88 2.33,-1.51 0.66,-0.64 1.19,-1.39 1.57,-2.26 0.38,-0.87 0.57,-1.82 0.57,-2.84 0,-0.95 -0.14,-1.81 -0.43,-2.57 -0.28,-0.77 -0.68,-1.44 -1.2,-2.03 -0.52,-0.58 -1.15,-1.07 -1.88,-1.48 -0.73,-0.4 -1.53,-0.73 -2.41,-0.98l-0.09 0c-0.24,-0.11 -0.5,-0.2 -0.79,-0.29l0.03 0c-0.47,-0.15 -0.94,-0.3 -1.42,-0.46 -0.48,-0.16 -0.91,-0.36 -1.29,-0.61 -0.38,-0.24 -0.69,-0.54 -0.92,-0.9 -0.24,-0.36 -0.35,-0.81 -0.35,-1.34 0,-0.95 0.33,-1.74 0.98,-2.35 0.66,-0.62 1.48,-0.93 2.45,-0.93 0.45,0 0.87,0.11 1.28,0.32 0.4,0.22 0.75,0.51 1.07,0.88 0.3,0.37 0.54,0.8 0.71,1.29 0.17,0.49 0.25,1 0.25,1.56l3.47 0c0,-1.07 -0.17,-2.04 -0.52,-2.93 -0.35,-0.89 -0.83,-1.67 -1.45,-2.32 -0.62,-0.66 -1.33,-1.17 -2.15,-1.53 -0.82,-0.36 -1.7,-0.55 -2.66,-0.55 -0.93,0 -1.81,0.17 -2.65,0.5zm100.24 0.47c-1.49,0.63 -2.78,1.49 -3.87,2.58 -1.09,1.1 -1.96,2.39 -2.59,3.87 -0.64,1.49 -0.96,3.09 -0.96,4.81 0,1.7 0.33,3.29 0.97,4.77 0.65,1.49 1.53,2.78 2.64,3.87 1.12,1.09 2.42,1.95 3.9,2.58 1.49,0.62 3.07,0.93 4.74,0.93 1.15,0 2.28,-0.2 3.39,-0.62 1.12,-0.41 2.19,-0.99 3.24,-1.73 1.03,-0.74 2,-1.64 2.89,-2.69 0.89,-1.05 1.69,-2.21 2.39,-3.48l-2.39 1.36 -1.97 -0.38c-0.96,1.28 -2.07,2.31 -3.34,3.09 -1.27,0.79 -2.69,1.18 -4.24,1.18 -1.19,0 -2.31,-0.24 -3.37,-0.72 -1.06,-0.48 -2,-1.12 -2.8,-1.94 -0.81,-0.82 -1.45,-1.75 -1.91,-2.82 -0.47,-1.06 -0.7,-2.18 -0.7,-3.37 0,-1.19 0.23,-2.32 0.68,-3.41 0.46,-1.08 1.08,-2.03 1.88,-2.85 0.8,-0.81 1.73,-1.46 2.79,-1.95 1.05,-0.49 2.19,-0.74 3.4,-0.74 1.47,0 2.87,0.37 4.2,1.1 1.34,0.73 2.45,1.76 3.35,3.07l3.3 -1.24c-0.74,-0.87 -1.52,-1.68 -2.33,-2.43 -0.82,-0.75 -1.67,-1.41 -2.57,-1.97 -0.89,-0.57 -1.83,-1.01 -2.81,-1.33 -0.99,-0.31 -2.03,-0.47 -3.11,-0.47 -1.71,0 -3.32,0.31 -4.8,0.93zm34.63 -0.55c-0.24,0.46 -0.48,0.95 -0.74,1.46 -0.25,0.51 -0.49,1.01 -0.73,1.5 -0.79,1.63 -1.58,3.26 -2.37,4.89 -0.8,1.62 -1.59,3.24 -2.37,4.85l-5.98 -12.7 -3.82 0c0.34,0.68 0.71,1.44 1.13,2.29 0.41,0.85 0.8,1.64 1.16,2.36 0.97,2.01 1.95,4.01 2.93,6 0.97,1.98 1.94,3.96 2.89,5.93l0 6.97 3.47 0 0 -6.97 8.21 -16.58 -3.78 0zm-51.06 0l0 17.12 -11.61 -17.12 -3.95 0 0 23.55 3.47 0 0 -18.24 12.38 18.24 3.15 0 0 -23.55 -3.44 0zm-34.75 0l0 23.55 13.46 0 0 -3.25 -9.99 0 0 -7 8.75 0 0 -3.28 -8.75 0 0 -6.77 9.99 0 0 -3.25 -13.46 0zm-25.37 0l0 23.55 7.1 0c1.23,0 2.53,-0.15 3.9,-0.46 1.36,-0.3 2.6,-0.8 3.7,-1.48 0.83,-0.53 1.58,-1.16 2.23,-1.89 0.66,-0.74 1.22,-1.52 1.68,-2.36 0.45,-0.83 0.8,-1.73 1.06,-2.67 0.26,-0.95 0.38,-1.9 0.38,-2.85 0,-0.98 -0.12,-1.94 -0.36,-2.9 -0.25,-0.95 -0.6,-1.85 -1.05,-2.7 -0.46,-0.85 -1.02,-1.64 -1.69,-2.38 -0.67,-0.73 -1.42,-1.37 -2.25,-1.92 -1.1,-0.68 -2.33,-1.17 -3.69,-1.48 -1.35,-0.31 -2.66,-0.46 -3.91,-0.46l-7.1 0zm3.47 3.25l2.58 0c1.19,0 2.41,0.12 3.68,0.38 1.26,0.25 2.37,0.66 3.32,1.21 1.08,0.81 1.95,1.82 2.59,3.05 0.65,1.23 0.97,2.52 0.97,3.85 0,1.3 -0.29,2.56 -0.88,3.81 -0.6,1.24 -1.39,2.26 -2.36,3.07 -1,0.68 -2.07,1.13 -3.22,1.35 -1.14,0.22 -2.34,0.33 -3.59,0.33l-3.09 0 0 -17.05zm-12.73 20.3l3.44 0 0 -23.55 -3.44 0 0 23.55zm-36.79 -23.55l0 23.55 13.46 0 0 -3.25 -9.99 0 0 -7 8.75 0 0 -3.28 -8.75 0 0 -6.77 9.99 0 0 -3.25 -13.46 0zm-21.17 0l0 23.55 3.44 0 0 -20.3 3.28 0c0.74,0 1.44,0.04 2.1,0.12 0.65,0.09 1.3,0.31 1.94,0.67 0.68,0.34 1.2,0.86 1.58,1.56 0.37,0.7 0.55,1.42 0.55,2.17 0,1.01 -0.29,1.88 -0.89,2.59 -0.59,0.71 -1.38,1.22 -2.35,1.54 -0.58,0.17 -1.2,0.27 -1.87,0.29 -0.67,0.02 -1.3,0.03 -1.92,0.03l-1.43 0 -0.03 3.56 2.25 0 5.64 7.77 4.36 0c-0.32,-0.44 -0.69,-0.94 -1.12,-1.48 -0.42,-0.54 -0.86,-1.11 -1.3,-1.7 -0.45,-0.59 -0.89,-1.18 -1.34,-1.75 -0.44,-0.57 -0.86,-1.12 -1.24,-1.63 -0.25,-0.33 -0.51,-0.66 -0.75,-0.98 -0.24,-0.32 -0.48,-0.64 -0.71,-0.96 0.87,-0.17 1.68,-0.46 2.43,-0.89 0.75,-0.42 1.41,-0.95 1.96,-1.59 0.55,-0.63 0.99,-1.36 1.3,-2.16 0.32,-0.81 0.48,-1.68 0.48,-2.61 0,-1.51 -0.37,-2.87 -1.13,-4.08 -0.75,-1.21 -1.82,-2.15 -3.2,-2.83 -0.89,-0.38 -1.85,-0.62 -2.88,-0.73 -1.03,-0.11 -1.99,-0.16 -2.88,-0.16l-6.27 0zm-63.75 0l0 23.55 12.67 0 0 -3.25 -9.23 0 0 -20.3 -3.44 0zm-16.61 0l0 23.55 12.66 0 0 -3.25 -9.23 0 0 -20.3 -3.43 0zm-17.73 0l-10.09 23.55 3.6 0c1.33,-3.14 2.68,-6.31 4.02,-9.51 1.35,-3.21 2.69,-6.39 4.03,-9.55l4.68 11.2 3.41 7.86 3.72 0 -10.12 -23.55 -3.25 0zm-19 0c-0.66,1.53 -1.33,3.1 -2.02,4.71 -0.69,1.61 -1.37,3.19 -2.05,4.74 -0.6,1.4 -1.22,2.84 -1.87,4.31 -0.64,1.48 -1.26,2.91 -1.83,4.29l-7.73 -18.05 -4.46 0 0 23.55 3.47 0 0 -17.47 7.39 17.47 2.64 0 3.15 -7.45c0.68,-1.63 1.38,-3.3 2.11,-4.99 0.74,-1.7 1.44,-3.37 2.12,-5l0.06 17.44 3.47 0 0 -23.55 -4.45 0zm86.36 0.43c-0.71,0.26 -1.34,0.64 -1.89,1.13 -0.55,0.49 -0.99,1.06 -1.32,1.73 -0.33,0.67 -0.5,1.41 -0.5,2.21 0,0.96 0.2,1.78 0.58,2.47 0.38,0.69 0.88,1.34 1.49,1.96 -0.65,0.34 -1.26,0.72 -1.83,1.16 -0.56,0.44 -1.05,0.92 -1.48,1.47 -0.42,0.54 -0.75,1.14 -1,1.81 -0.25,0.67 -0.37,1.41 -0.37,2.24 0,1.02 0.21,1.98 0.63,2.87 0.41,0.89 0.96,1.66 1.65,2.32 0.69,0.66 1.49,1.18 2.4,1.56 0.92,0.38 1.87,0.57 2.87,0.57 0.84,0 1.61,-0.11 2.28,-0.33 0.66,-0.22 1.27,-0.54 1.82,-0.94 0.56,-0.4 1.05,-0.88 1.48,-1.43 0.44,-0.55 0.85,-1.16 1.23,-1.82l4.84 4.71 2.45 -2.32c-0.45,-0.42 -0.95,-0.9 -1.5,-1.43 -0.55,-0.53 -1.07,-1.04 -1.56,-1.53 -0.46,-0.45 -0.91,-0.88 -1.33,-1.3 -0.43,-0.43 -0.86,-0.85 -1.28,-1.28l4.33 -8.18 -3.82 0c-0.49,0.89 -0.99,1.83 -1.51,2.82 -0.52,0.99 -1.02,1.96 -1.51,2.91 -0.3,-0.3 -0.56,-0.55 -0.77,-0.76 -0.21,-0.21 -0.45,-0.45 -0.73,-0.7 -0.25,-0.24 -0.49,-0.46 -0.72,-0.68 -0.22,-0.23 -0.44,-0.46 -0.68,-0.69 0.51,-0.24 0.99,-0.52 1.45,-0.88 0.46,-0.34 0.86,-0.75 1.21,-1.19 0.35,-0.44 0.62,-0.93 0.83,-1.47 0.2,-0.52 0.3,-1.09 0.3,-1.68 0,-0.81 -0.16,-1.56 -0.48,-2.26 -0.32,-0.7 -0.75,-1.31 -1.29,-1.82 -0.54,-0.5 -1.16,-0.91 -1.86,-1.2 -0.7,-0.3 -1.43,-0.45 -2.19,-0.45 -0.77,0 -1.51,0.13 -2.22,0.4zm0.37 6.67c-0.43,-0.53 -0.64,-1.07 -0.64,-1.63 0,-0.63 0.25,-1.15 0.75,-1.56 0.5,-0.4 1.07,-0.6 1.7,-0.6 0.66,0 1.23,0.21 1.72,0.62 0.49,0.41 0.73,0.96 0.73,1.64 0,0.42 -0.08,0.79 -0.25,1.1 -0.17,0.3 -0.39,0.58 -0.65,0.81 -0.27,0.23 -0.58,0.44 -0.93,0.6 -0.35,0.17 -0.7,0.32 -1.06,0.45 -0.49,-0.42 -0.95,-0.9 -1.37,-1.43zm-0.85 13.22c-0.47,-0.2 -0.89,-0.48 -1.23,-0.83 -0.36,-0.35 -0.64,-0.76 -0.85,-1.24 -0.21,-0.47 -0.32,-0.98 -0.32,-1.51 0,-0.51 0.11,-0.99 0.32,-1.43 0.21,-0.45 0.49,-0.86 0.83,-1.23 0.34,-0.37 0.73,-0.7 1.18,-1 0.44,-0.3 0.89,-0.54 1.33,-0.73l4.71 4.64c-0.25,0.45 -0.52,0.89 -0.81,1.33 -0.29,0.43 -0.6,0.82 -0.95,1.16 -0.35,0.34 -0.75,0.61 -1.2,0.82 -0.44,0.22 -0.94,0.32 -1.49,0.32 -0.54,0 -1.04,-0.1 -1.52,-0.3z"/>
 </g>
</svg>
