<?xml version="1.0" encoding="UTF-8"?>
<!DOCTYPE svg PUBLIC "-//W3C//DTD SVG 1.1//EN" "http://www.w3.org/Graphics/SVG/1.1/DTD/svg11.dtd">
<!-- Creator: CorelDRAW 2021 (64-Bit) -->
<svg xmlns="http://www.w3.org/2000/svg" xml:space="preserve" width="211px" height="212px" version="1.1" style="shape-rendering:geometricPrecision; text-rendering:geometricPrecision; image-rendering:optimizeQuality; fill-rule:evenodd; clip-rule:evenodd"
viewBox="0 0 45.16 45.3"
 xmlns:xlink="http://www.w3.org/1999/xlink"
 xmlns:xodm="http://www.corel.com/coreldraw/odm/2003">
 <defs>
  <style type="text/css">
   <![CDATA[
    .fil0 {fill:#282829}
    .fil1 {fill:#282829;fill-rule:nonzero}
   ]]>
  </style>
 </defs>
 <g id="Layer_x0020_1">
  <metadata id="CorelCorpID_0Corel-Layer"/>
  <path class="fil0" d="M35.97 0.01c0,0.05 0,0.11 0,0.16 0.09,1.43 -0.11,2.82 -0.47,4.2 -0.44,1.68 -1.1,3.29 -1.88,4.84 -1.01,2.03 -2.2,3.94 -3.5,5.79 -1.03,1.46 -2.12,2.87 -3.29,4.22 -0.05,0.07 -0.11,0.13 -0.16,0.19 -0.02,-0.01 -0.03,-0.02 -0.05,-0.03 0.02,-0.07 0.04,-0.14 0.06,-0.21 0.7,-2.4 1.27,-4.83 1.58,-7.32 0.21,-1.75 0.29,-3.51 0.1,-5.27 -0.08,-0.67 -0.21,-1.34 -0.41,-1.98 -0.03,-0.09 -0.07,-0.18 -0.11,-0.27 0,0.41 0.04,0.8 0.07,1.19 0.2,2.15 0.12,4.3 -0.21,6.44 -0.33,2.15 -0.94,4.21 -1.82,6.2 -1.7,3.86 -4.23,7.1 -7.39,9.87 -0.97,0.85 -2,1.62 -3.06,2.35 -0.61,0.43 -1.17,0.92 -1.64,1.5 -0.77,0.95 -1.15,2.02 -0.91,3.26 0.22,1.09 0.84,1.79 1.93,2.04 0.73,0.17 1.45,0.12 2.18,-0.07 -0.05,-0.01 -0.1,-0.03 -0.14,-0.05 -0.24,-0.11 -0.49,-0.2 -0.71,-0.34 -0.69,-0.44 -0.97,-1.08 -0.85,-1.89 0.09,-0.62 0.36,-1.17 0.71,-1.68 0.46,-0.69 1.04,-1.28 1.67,-1.82 1.68,-1.42 3.32,-2.89 4.91,-4.41 2.29,-2.18 4.42,-4.5 6.36,-6.99 1.59,-2.06 3.03,-4.21 4.24,-6.52 0.97,-1.85 1.77,-3.78 2.33,-5.8 0.39,-1.41 0.64,-2.84 0.72,-4.3 0.06,-1 0.03,-2.01 -0.15,-3 -0.01,-0.11 -0.04,-0.21 -0.06,-0.31l-0.05 0.01zm2.93 9.14c-0.51,0.97 -0.99,1.95 -1.52,2.9 -1.19,2.1 -2.58,4.07 -4.12,5.92 -0.85,1.02 -1.73,2.02 -2.69,2.94 -0.54,0.51 -1.08,1.03 -1.62,1.55 -0.05,0.05 -0.1,0.11 -0.17,0.18 0.16,-0.02 0.16,-0.02 0.25,-0.09 1.59,-1.28 3.17,-2.58 4.66,-3.98 1.13,-1.07 2.22,-2.17 3.13,-3.42 0.7,-0.96 1.36,-1.93 1.82,-3.03 0.36,-0.86 0.56,-1.76 0.48,-2.71 -0.01,-0.15 -0.01,-0.31 -0.1,-0.49 -0.05,0.1 -0.09,0.16 -0.12,0.23zm-0.68 8.25c-0.39,0.35 -0.77,0.7 -1.16,1.04 -0.82,0.71 -1.64,1.43 -2.53,2.04 -0.38,0.26 -0.74,0.54 -1.11,0.81 -0.2,0.14 -0.41,0.28 -0.62,0.41 -0.5,0.3 -1.01,0.59 -1.51,0.88 -0.14,0.09 -0.27,0.19 -0.41,0.28 0.01,0.02 0.01,0.03 0.01,0.05 0.05,-0.01 0.09,-0.02 0.13,-0.03 0.56,-0.15 1.09,-0.35 1.62,-0.57 1.17,-0.49 2.32,-1.01 3.39,-1.71 0.6,-0.39 1.16,-0.83 1.63,-1.38 0.32,-0.38 0.58,-0.8 0.72,-1.29 0.06,-0.21 0.12,-0.42 0.06,-0.68 -0.09,0.06 -0.16,0.1 -0.22,0.15zm-0.13 4.29c-0.67,0.48 -1.39,0.88 -2.12,1.27 -0.52,0.28 -1.06,0.51 -1.61,0.73 -0.77,0.29 -1.55,0.55 -2.33,0.83 -0.08,0.03 -0.16,0.06 -0.25,0.09 0.06,0.04 0.1,0.04 0.15,0.03 0.45,-0.06 0.9,-0.11 1.35,-0.18 0.54,-0.08 1.07,-0.15 1.59,-0.33 0.41,-0.14 0.83,-0.24 1.23,-0.41 0.7,-0.29 1.3,-0.76 1.84,-1.29 0.21,-0.21 0.31,-0.47 0.4,-0.73 0.02,-0.04 0,-0.09 0,-0.18 -0.1,0.07 -0.18,0.11 -0.25,0.17zm-0.7 3.07c-0.33,0.16 -0.65,0.35 -1,0.48 -1.23,0.46 -2.5,0.76 -3.77,1.11 -0.07,0.02 -0.14,0.04 -0.22,0.06 0.01,0.02 0.01,0.04 0.01,0.05 0.13,0.02 0.25,0.04 0.38,0.04 0.92,0 1.83,-0.09 2.74,-0.29 0.58,-0.13 1.13,-0.32 1.6,-0.69 0.18,-0.14 0.33,-0.31 0.48,-0.48 0.09,-0.11 0.15,-0.24 0.16,-0.44 -0.15,0.07 -0.27,0.11 -0.38,0.16zm-13.6 1.5c-1.17,1.17 -2.39,2.28 -3.62,3.38 -0.11,0.1 -0.15,0.2 -0.15,0.35 0.01,0.98 0.01,1.96 0,2.95 0,0.17 0,0.34 -0.01,0.51 -0.06,0.53 -0.24,1 -0.73,1.29 -0.43,0.25 -0.9,0.32 -1.38,0.24 -0.77,-0.13 -1.25,-0.62 -1.38,-1.39 -0.02,-0.14 -0.04,-0.29 -0.06,-0.43 -0.03,0 -0.05,0 -0.05,0.01 -0.36,0.45 -0.66,0.92 -0.79,1.49 -0.1,0.41 -0.05,0.8 0.23,1.13 0.16,0.21 0.36,0.39 0.57,0.56 0.35,0.27 0.75,0.45 1.17,0.59 0.26,0.09 0.52,0.16 0.84,0.26 -1.28,0.32 -2.51,0.67 -3.81,0.36 0.06,0.03 0.11,0.08 0.17,0.11 0.34,0.15 0.67,0.31 1.02,0.43 0.54,0.18 1.1,0.26 1.67,0.3 1.01,0.08 2.01,0.02 2.99,-0.25 1.57,-0.42 2.64,-1.4 3.17,-2.95 0.25,-0.73 0.32,-1.49 0.32,-2.25 0.01,-2.19 0,-4.39 0,-6.58 0,-0.07 -0.01,-0.13 -0.02,-0.23 -0.07,0.06 -0.11,0.09 -0.15,0.12zm-19.54 0.43c-1.64,0.53 -2.89,1.52 -3.66,3.09 -0.49,1 -0.65,2.07 -0.57,3.18 0.08,1.1 0.45,2.1 1.11,2.99 0.94,1.26 2.22,1.99 3.74,2.33 1,0.22 2.01,0.21 3.02,0.06 1.32,-0.19 2.5,-0.71 3.57,-1.51 0.1,-0.08 0.15,-0.16 0.15,-0.29 -0.01,-1.66 0,-3.32 -0.01,-4.98 0,-0.06 -0.01,-0.12 -0.02,-0.17 -0.41,-0.06 -5.41,-0.03 -5.57,0.02l0 2.41c0.1,0.01 0.19,0.02 0.27,0.02 0.2,0 0.4,0 0.6,0 0.28,0 0.56,0 0.84,0 0.08,0 0.16,0.01 0.26,0.01l0 0.76c0,0.43 -0.01,0.45 -0.43,0.56 -0.03,0 -0.06,0.01 -0.09,0.01 -0.41,0.09 -0.82,0.1 -1.22,0.05 -0.86,-0.11 -1.54,-0.51 -1.96,-1.27 -0.48,-0.87 -0.5,-1.78 -0.14,-2.69 0.27,-0.69 0.79,-1.15 1.5,-1.4 0.5,-0.18 1.02,-0.17 1.53,-0.08 0.63,0.12 1.17,0.41 1.68,0.79 0.06,0.05 0.13,0.09 0.21,0.15 0.72,-0.87 1.43,-1.72 2.15,-2.6 -0.07,-0.07 -0.13,-0.13 -0.19,-0.17 -0.36,-0.25 -0.72,-0.52 -1.1,-0.73 -0.92,-0.52 -1.91,-0.78 -2.97,-0.84 -0.19,-0.01 -0.38,-0.01 -0.57,-0.01 -0.72,0 -1.43,0.08 -2.13,0.31zm31.26 -0.03c-0.04,0.31 -0.03,11.34 0.02,11.51 0.23,0.05 3.62,0.04 3.83,-0.01 0,-0.61 0,-1.23 0,-1.85 0,-0.63 0,-1.25 0,-1.9l5.37 0c0.05,-0.32 0.04,-2.82 -0.02,-3.01l-0.74 0 -0.78 0 -0.76 0 -0.77 0 -0.76 0c-0.26,0 -0.52,0 -0.78,0 -0.24,0 -0.49,0 -0.75,-0.01l0 -1.46 5.79 0 0 -3.28c-0.12,-0.02 -2.16,-0.03 -4.34,-0.03 -2.52,0 -5.21,0.01 -5.31,0.04zm-10.11 -0.02c-0.01,0 -0.01,0.01 -0.02,0.01 0,0 -0.01,0.01 -0.02,0.03 0,0.03 -0.01,0.06 -0.01,0.1 0,3.77 0,7.53 0,11.3 0,0.02 0.01,0.04 0.01,0.07 0.01,0 0.01,0.01 0.02,0.02 0,0 0.01,0.01 0.02,0.02l9.23 0 0 -3.3 -1.35 0 -1.34 0c-0.46,0 -0.92,0 -1.37,0 -0.14,0 -0.29,0 -0.43,0 -0.3,0.01 -0.61,0.01 -0.93,-0.01l0 -8.22c-0.04,-0.02 -0.06,-0.03 -0.08,-0.03 -1.16,-0.01 -2.32,-0.01 -3.47,-0.01 -0.09,0 -0.17,0.01 -0.26,0.02zm-12.85 0l0 6.68c0.01,0 0.03,0.01 0.04,0.01 0.02,-0.04 0.04,-0.08 0.05,-0.13 0.13,-0.4 0.32,-0.78 0.56,-1.13 0.44,-0.67 1,-1.22 1.62,-1.7 0.48,-0.37 0.98,-0.71 1.47,-1.07 0.12,-0.08 0.18,-0.17 0.18,-0.32 -0.01,-0.72 -0.01,-1.43 -0.01,-2.15 0,-0.06 -0.01,-0.12 -0.01,-0.19l-3.9 0z"/>
  <path class="fil1" d="M11.86 45.21l0 -4.71 0.96 0 0 4.71 -0.96 0zm4.88 -1.74l0.92 0.29c-0.14,0.52 -0.38,0.9 -0.71,1.15 -0.33,0.25 -0.74,0.38 -1.25,0.38 -0.62,0 -1.14,-0.21 -1.54,-0.64 -0.4,-0.43 -0.61,-1.01 -0.61,-1.76 0,-0.78 0.21,-1.39 0.61,-1.82 0.41,-0.44 0.94,-0.66 1.6,-0.66 0.58,0 1.04,0.17 1.4,0.52 0.22,0.2 0.38,0.49 0.49,0.87l-0.94 0.22c-0.06,-0.24 -0.18,-0.44 -0.35,-0.58 -0.18,-0.14 -0.4,-0.21 -0.65,-0.21 -0.35,0 -0.63,0.12 -0.85,0.38 -0.22,0.25 -0.33,0.65 -0.33,1.21 0,0.6 0.11,1.02 0.33,1.27 0.21,0.26 0.49,0.38 0.83,0.38 0.26,0 0.47,-0.08 0.66,-0.24 0.18,-0.16 0.31,-0.41 0.39,-0.76zm1.54 -0.59c0,-0.48 0.07,-0.88 0.22,-1.21 0.1,-0.24 0.25,-0.45 0.43,-0.64 0.19,-0.2 0.39,-0.34 0.61,-0.43 0.3,-0.12 0.64,-0.19 1.02,-0.19 0.7,0 1.25,0.22 1.67,0.65 0.41,0.43 0.62,1.03 0.62,1.8 0,0.76 -0.2,1.36 -0.62,1.79 -0.41,0.43 -0.97,0.65 -1.66,0.65 -0.7,0 -1.26,-0.22 -1.67,-0.65 -0.41,-0.42 -0.62,-1.01 -0.62,-1.77zm0.98 -0.03c0,0.54 0.12,0.94 0.37,1.22 0.25,0.27 0.56,0.41 0.94,0.41 0.38,0 0.69,-0.14 0.94,-0.41 0.24,-0.27 0.36,-0.68 0.36,-1.23 0,-0.54 -0.12,-0.95 -0.35,-1.21 -0.24,-0.27 -0.56,-0.4 -0.95,-0.4 -0.39,0 -0.71,0.13 -0.95,0.4 -0.24,0.27 -0.36,0.68 -0.36,1.22zm4.34 2.36l0 -4.71 0.92 0 1.94 3.16 0 -3.16 0.88 0 0 4.71 -0.95 0 -1.91 -3.1 0 3.1 -0.88 0zm4.64 -1.26l0 -0.9 1.77 0 0 0.9 -1.77 0zm2.27 1.26l0 -4.71 0.95 0 0 4.71 -0.95 0zm1.82 0l0 -4.71 0.96 0 0 4.71 -0.96 0z"/>
 </g>
</svg>
